<svg xmlns="http://www.w3.org/2000/svg" viewBox="0 0 289.75 292.3"><defs><style>.cls-1{fill:#393754;}.cls-2{fill:#2a2a42;}.cls-3{fill:#232335;}.cls-4{fill:#254556;}.cls-5{fill:#1e3742;}.cls-6{fill:#172a30;}.cls-7{fill:#396477;}.cls-8{fill:#5a94a8;}.cls-9{fill:#8accdd;}.cls-10{fill:#9db5bf;}.cls-11{fill:#c5dbe2;}.cls-12{fill:#fafeff;}.cls-13{fill:#192320;}.cls-14{fill:#FFFFFF;}</style></defs><g id="Calque_2" data-name="Calque 2"><g id="icon"><path class="cls-1" d="M70.46,102.49c-1.1.71-2.18,1.49-3.34,2.12a6.93,6.93,0,0,0-2.65,2c-.26.4.19,1,.67.86a25.33,25.33,0,0,0,3.19-1.17c1.09-.61,2.11-1.34,3.16-2S71.57,101.78,70.46,102.49Z"/><path class="cls-2" d="M223.33,98a32.73,32.73,0,0,0-2.4-2.84,16.66,16.66,0,0,0-3.05-2,.8.8,0,0,0-1.08,1.08c.53,1.15,1.59,1.73,2.43,2.62s1.57,1.91,2.4,2.84C222.66,100.89,224.35,99.18,223.33,98Z"/><path class="cls-3" d="M127.48,22.86l-1.5-.1c-.78-.05-.79,1.27,0,1.22l1.5-.09A.52.52,0,0,0,127.48,22.86Z"/><path class="cls-4" d="M257.9,96.55c-4.17-7.35-6.55-15.68-12.16-22,.39-2,.85-4-.06-6.09a14.85,14.85,0,0,0-5.63-6.58A31.5,31.5,0,0,0,237,60.33c.44-3.3-5.68-6.1-8.26-6.47-5.6-.8-10.29,1.75-14.12,5.45-1.61-7.22-13.07-9-19.64-9.15a35.12,35.12,0,0,0-18.22,4.9c-2.89,1.63-6.6,3.65-9.93,6,0-2.12-.21-4.23-.44-6.24-.47-4.17-.22-9.76-1.87-13.71C162.07,35.26,156,29.22,151.41,25c-5.6-5.25-11.51-9.44-19.47-9.5a24.6,24.6,0,0,0-8.67,1.45,27.89,27.89,0,0,0-6.11,3c-1,.68-2.36,2.63-3.49,3.09s-1.88,2-.77,2.91c3.59,3.09,8.89-2.18,12.37-3.27,6.52-2,11.83-.75,16.86,2.57a1.42,1.42,0,0,0,.08,1.94c2.54,2.58,5.81,4.18,8.53,6.52,3.76,3.24,4.64,6,5.13,10.28-.22-.07-.44-.15-.66-.2s-.62-.13-1-.18c-2.41-3.12-7.65-2.47-11.44-2.64-8-.36-16.3-.91-24.31-.61-7.37.27-30.93,4.53-31.22,14.83v0c0,.07,0,.13,0,.2a1.14,1.14,0,0,0,.07.41A2.18,2.18,0,0,0,88.2,57c2.62,1.88,7.19-3,9.51-4,8.34-3.51,18-1.83,27-2.6a99.17,99.17,0,0,1,12.79-.65c2.39.11,8.63-.24,10.31,1.29,2.24,2,1.79,7.23,2.05,10,.37,4.13,1.06,8.3,1.06,12.44,0,2-.4,4.11-.44,6.11a37.67,37.67,0,0,0-4.76-6.36c-5.28-5.5-12.83-8.52-20.34-9.15-9.23-.78-18.47,3.61-26.65,7.29C93.2,73.9,83.46,78.49,82,85.29c-.27,1.33,1.23,2.91,2.55,2,10.16-7.33,22.78-16,36-17.07a1.23,1.23,0,0,0,.54.79c6.85,4.08,15.38,4.72,21.58,10.13a16.84,16.84,0,0,1,4.57,6.49c-1,1-1.69,2.37-2.57,3.54a13.35,13.35,0,0,0-1.49,2.43,4.55,4.55,0,0,0-1-.53,6.24,6.24,0,0,0-4.79.4l-.08,0a2.65,2.65,0,0,0-2.06-.19c-2,.83-3.31,2.56-2.66,4.79a5,5,0,0,0,3.38,3.29,9.69,9.69,0,0,0,3.22.24,6,6,0,0,0,.1,2c1.06,4.57,3.83,9.49,8.05,11.78a14.48,14.48,0,0,0,12,.69,8.07,8.07,0,0,0,4.7-6.36c1.59-1.3,2.65-3.78,3.41-5.38a.94.94,0,0,0,.06-.15c3.33.9,7.67-.07,10.78-.49a19.06,19.06,0,0,1,9.19.59c1.61.58,2.77,1.54,4.26,2,2.4,5.62,3.88,11.47,6.25,17.1,1.87,4.42,4.44,8.44,5.77,13.13a54.58,54.58,0,0,1,1.49,18.2c-.34,4.34-1.83,8.67-.84,13a1.92,1.92,0,0,0,3.47.45c2.06-3.5,3.12-10.44,3.47-14.45a54.71,54.71,0,0,0-1.93-19.4c-1.66-5.49-4.84-10.19-6.77-15.52-1.87-5.13-2.82-12.38-7.55-15.82a5.29,5.29,0,0,0-.61-1.15c6.44-2.45,15.06-7.92,18.46-13.48a2.37,2.37,0,0,0,.64-.31,70.37,70.37,0,0,1,8.07,7.33c3.07,3.07,5.17,6.78,7.88,10a85.58,85.58,0,0,1-2.39,16.21c-.81,3.22-4.69,11-1.68,13.85a1.51,1.51,0,0,0,1.47.39c1.85-.62,2.42-2.15,3.12-3.88a65.62,65.62,0,0,0,3.69-12.79c.83-4.52,3.53-12.43.7-16.59a2.69,2.69,0,0,0-.63-.67c-.85-3.77-4.06-6.85-6.9-9.67-3.95-3.93-8.58-9.16-13.71-11.48a4.92,4.92,0,0,0-.71-.23c-.47-.76-1-1.52-1.65-2.37-.24-.33-.53-.63-.8-.94.53.21,1.05-.34,1.58-1.67,4.44-2.34,6.23-4.61,11.88-4.63,5.42,0,10.17,1.69,13.74,5.78,2.43,2.79,4.25,6.28,6.86,8.9a2.3,2.3,0,0,0,2.48,1c2.55,4.39,5,8.78,9.35,12C257.15,99.41,258.56,97.72,257.9,96.55Z"/><path class="cls-5" d="M152.87,113.53c-1.29-1.35-4.19-4.42-3.89-6.45,0-.06,0-.12,0-.18a1.58,1.58,0,0,0,.12-.15,7.5,7.5,0,0,0,1.36-4.29,2.64,2.64,0,0,0,.73-3.33l-.09-.21a26.07,26.07,0,0,1-.88-2.86,1.45,1.45,0,0,0,.28-1.12v-.09c0-.08,0-.15,0-.23a3.55,3.55,0,0,0,.25-2.86c-.37-1.08-1.66-2.16-2.89-1.64a4.1,4.1,0,0,0-1.07.66,1.7,1.7,0,0,0-.35.14,3,3,0,0,0-1.41,3.29,11.83,11.83,0,0,0,.42,4.86,5,5,0,0,0-1.69,1.86l-.08,0a5.2,5.2,0,0,0-1.92,3.37,1.24,1.24,0,0,0-.17.23,6.83,6.83,0,0,0,.82,6.88,5.11,5.11,0,0,0,2.8,1.69,5.26,5.26,0,0,0,1.6-.06l.57.53a7.17,7.17,0,0,0,3.13,2.92A1.92,1.92,0,0,0,152.87,113.53Z"/><path class="cls-5" d="M140.26,76.06c-6.65-9.38-21-11.2-31.2-7.89a68.17,68.17,0,0,0-14.69,6.35C90.46,77,84.89,80.31,84,85.09c-.31,1.6,1.92,2.78,2.78,1.17,1.69-3.17,7.31-5.84,10.44-7.86A57.11,57.11,0,0,1,109,73.06c12-4.2,19.28,1,30.19,4.46A1,1,0,0,0,140.26,76.06Z"/><path class="cls-5" d="M144.23,47.08c-1.65-3.09-8.67-1.82-11.17-1.88-6.6-.16-13.21,0-19.8,0-10.5,0-20.73-1.63-25.81,8.95a1.85,1.85,0,0,0,2.89,2.23c4.08-3.85,6.77-5.53,12.48-5.75,4.94-.2,9.9-.27,14.84-.52,8.1-.42,18.11.81,25.86-1.3A1.2,1.2,0,0,0,144.23,47.08Z"/><path class="cls-5" d="M148,47.65c-.69-1.6-3.51-.44-2.85,1.2a7.26,7.26,0,0,0,1.44,2.3c.59.62,1.65,1.21,2.49.71C150.84,50.8,148.45,48.76,148,47.65Z"/><path class="cls-5" d="M160.94,47.16c-.43-5.67-3.37-8.92-7.15-12.78-6.26-6.38-13.24-15-23-14.93a1,1,0,0,0-.61-1.46,13,13,0,0,0-8.16.8,34.4,34.4,0,0,0-5,2.8,2.83,2.83,0,0,0-2.51,2,1.83,1.83,0,0,0,2.22,2.22,24,24,0,0,0,3.92-1.67c.5-.05,1-.1,1.51-.18.08,0,1-.26,1.94-.55,1.23-.17,2.46-.33,3.69-.52a1.23,1.23,0,0,0,1.16-1c9.23,1.8,16.12,7.28,22.43,13.89,5.19,5.43,7.3,9.9,7.17,17.45-.07,4.31-.75,8.46,0,12.74.14.87,1.33.68,1.58,0C162.09,60.65,161.38,52.72,160.94,47.16Z"/><path class="cls-5" d="M197.66,51l-.25-.22a1.91,1.91,0,0,0-2.2-.28,23.31,23.31,0,0,0-2.65,1.56,2.22,2.22,0,0,0-2.3-1.41c-6.62.94-12.17,1.88-17.61,6.12-4.76,3.7-10,8.91-12.87,14.2-1.91,3.48-4.12,8.69-3.22,12.83a12.18,12.18,0,0,0,1.32,4.73A11.9,11.9,0,0,0,160.19,92a25.44,25.44,0,0,0,1.55,4.24,2.75,2.75,0,0,0,2.41,1.38h.74a2.72,2.72,0,0,0,1.05-.23,10.81,10.81,0,0,0,1.16.19,2.2,2.2,0,0,0,2.32-1.44,3,3,0,0,0,1.6-1.48l.13,0A9.53,9.53,0,0,0,173,94a12.23,12.23,0,0,0,2.21-.63,17.47,17.47,0,0,0,3.67-2.13,6,6,0,0,0,.54-.46c2-.6,4.28-1.09,5.34-2.85a2.12,2.12,0,0,0-.33-2.52,2.16,2.16,0,0,0-2.45-.52l-.43.09c-.64.13-1.24.39-1.87.56s-1.4.42-2.08.64a9.24,9.24,0,0,0-3.29,1.22l-.55.28h-.1c.05-.2.09-.38.11-.45a11.76,11.76,0,0,0,.56-2.76c.15-1.74.17-3.47.19-5.2a2.23,2.23,0,0,0-2.65-2.17c0-1.22-.06-2.43-.17-3.61a44.7,44.7,0,0,1,9.39-11.93,28.23,28.23,0,0,0-5.91,8.32,1.66,1.66,0,1,0,3,1.28c1.29-3,2.48-5.61,5.09-7.72a38.65,38.65,0,0,0,4.81-4.22c1.25-1.39,2.88-3.55,4.72-4.39.22-.1,3.92-.49,2.66-1C197.2,54.46,199.29,52.45,197.66,51Z"/><path class="cls-5" d="M207.38,88.29c-1.61.19-2.57,1.31-3.76,2.3-.72.6-1.35,1.27-2,1.91a2.38,2.38,0,0,0-1.2-.61,1.86,1.86,0,0,0,.46-1.45,1,1,0,0,0-2-.28c.28-.65-4.31.32-5,.3a13.3,13.3,0,0,0-5.3.58,13.8,13.8,0,0,0-2.15,1,1.69,1.69,0,0,0-.61-.32c-2.55-.66-4.91,1.54-7.14,2.42l-.37.13-.41.07a1.21,1.21,0,0,0-.5.23c-2,.59-4,.94-5.6,2.47-1.95,1.9,1.22,4.17,2.65,2.8a15.49,15.49,0,0,1,4.21-1.24,1.06,1.06,0,0,0,1.69-.49l.14,0a12.2,12.2,0,0,0,1.15-.56l.4-.08a9.08,9.08,0,0,0,2.36-.55l.85-.37.64-.26a.6.6,0,0,0,.2-.14c2.35-1.13,4.21-2.24,7.19-2.32a23.16,23.16,0,0,0,3.54-.35l-.88.78c-1.21,1.09-2.43,2.15-3.69,3.19-1.44,1.19.43,3.54,2,2.57a36,36,0,0,0,3.53-2.34c.3-.24.64-.55,1-.86a3.61,3.61,0,0,0,.88.86,1.51,1.51,0,0,0,1.46.06,1.18,1.18,0,0,0,1.41.49c1.78-.74,2.8-2.54,4.07-3.91,1.08-1.17,2.24-1.89,2.77-3.49A2,2,0,0,0,207.38,88.29Z"/><path class="cls-5" d="M245.57,81.56c-3.19-6.15-11-9.43-16.83-12.48a14,14,0,0,0-12.36-.36,2,2,0,0,0-.39-.2c-2.16-.63-5.2,1.43-6.88,2.58A30.56,30.56,0,0,0,206.62,73a2.5,2.5,0,0,0-3.76-.35,5.84,5.84,0,0,0-1.06,1.57,2.24,2.24,0,0,0-1.07,1.22c-.36.94-.76,1.59-.36,2.65A2.74,2.74,0,0,0,202,79.7a1.73,1.73,0,0,0,1.51.56c2.55-.29,4.36-2.84,6.26-4.38a44,44,0,0,1,4.8-3,7.74,7.74,0,0,0,1.89-1.42,21,21,0,0,1,3.24-.8c4-.6,6.82.27,10.21,2.53,2.38,1.58,4.82,2.39,7.25,3.85,2.71,1.63,4.27,4.44,7,5.89A1,1,0,0,0,245.57,81.56Z"/><path class="cls-5" d="M243.39,65.43c-2.77-3.93-7-5.14-11.36-6.71-4.88-1.75-9.1-2.71-13.61-.11a1.21,1.21,0,0,0,.93,2.19c3.75-1.11,8.76.54,12.37,1.82,1.61.58,3.2,1.16,4.8,1.77,1.89.72,3.21,2,5,2.89C242.64,67.83,244.23,66.63,243.39,65.43Z"/><path class="cls-5" d="M206.34,147.42a60.24,60.24,0,0,0,0-15.12c-.56-4.73-2.77-7.93-5.08-12-2.87-5-4.48-9.73-7.73-14.35.11-2.2-2.14-3.21-3.85-3.92-1.92-.8-4.21-1.49-6.26-.82l-.11,0-.16.06a1.31,1.31,0,0,0-.3,2.35c.76.58,1.46.44,2.35.59a13.57,13.57,0,0,1,3.15,1.11c.94.44,1.87,1.41,2.87,1.8,1.05,3,3.25,5.61,4.89,8.19,4,6.3,7.12,12.57,7.67,20.06.33,4.47,1,8.74.52,13.23-.46,4.83-1.06,10,.7,14.69.42,1.11,2.32,1.07,2.24-.31C206.93,157.73,205.64,152.73,206.34,147.42Z"/><path class="cls-5" d="M215.66,85.06a7.94,7.94,0,0,0-2.54-1.1,5.25,5.25,0,0,0-2.91.74c-1,.48-.26,1.86.7,1.68a3.33,3.33,0,0,1,2.66.47c.59.34,1.19.63,1.74,1,.94.65,1.77,1.67,3,1.71a.49.49,0,0,0,.48-.47C218.81,87.31,217.13,85.8,215.66,85.06Z"/><path class="cls-5" d="M226.58,98c-1.59-2-3.39-4.14-4.79-6.31a.56.56,0,0,0-1,.57c1.13,2,2.58,3.7,3.75,5.62a26.75,26.75,0,0,1,2.35,4c.19.46,1,.76,1.24.16C228.83,100.45,227.48,99.11,226.58,98Z"/><path class="cls-6" d="M148.67,112.28a5.15,5.15,0,0,0-.94-.92c-.24-.19-.6-.41-1-.66a3.56,3.56,0,0,0-.15-1.9c0-.1-.1-.17-.14-.26a2.22,2.22,0,0,0,.58-.74,7.5,7.5,0,0,0,.68-2.83,1.91,1.91,0,0,0,.47-.62,3.2,3.2,0,0,0,.13-2.73c0-.06.1-.1.14-.17a2.27,2.27,0,0,0-.06-2.57c0-.42.06-.94,0-1.21v-.2c1.14-.17,2.06-1.81,1-2.68a3.15,3.15,0,0,1-.83-2.26,1.44,1.44,0,0,0-2.77-.77,4.38,4.38,0,0,0-.14,2.7,2.68,2.68,0,0,0-.18.28,8.8,8.8,0,0,0-.74,3.37,6.07,6.07,0,0,0,.05,2.72,9.32,9.32,0,0,0-.23.91,3.46,3.46,0,0,0-.67.17,3.33,3.33,0,0,0-1.42.37c-3.1,1.53-1.9,7.88.05,9.83a2.53,2.53,0,0,0,1,.55c.88,1,2.06,1.94,3,2.93a1.81,1.81,0,0,0,2.83-.36l.27-.58A1.69,1.69,0,0,0,148.67,112.28Z"/><path class="cls-6" d="M117.54,67.77c-6.27-.62-13.41,2.85-19.33,4.64-6.78,2-11.33,7.09-15.73,12.53-1.45,1.14.4,3.25,1.9,2.46,5.85-3.07,9-8.86,15.56-10.89,6-1.85,12.85-3.07,18.3-6.17A1.39,1.39,0,0,0,117.54,67.77Z"/><path class="cls-6" d="M127.29,47C115.61,49.3,91.81,41.67,86,56.43c-.55,1.37,1.39,2.21,2.32,1.35,6.44-6,16.94-6.47,25.28-7.13,4.85-.38,9.76.67,14.36-1.2A1.25,1.25,0,0,0,127.29,47Z"/><path class="cls-6" d="M154.63,37.17c-2.19-4.11-7-6.75-10.22-10-3.44-3.44-7.8-5.19-12.13-7.11a1,1,0,0,0-1,.11,1.27,1.27,0,0,0-.83-.86c-2.66-.93-5.49.9-8,1.52a22,22,0,0,0-3.73.88c-1.67.7-3.15,1.91-4.82,2.55a1,1,0,0,0,.27,2c2.95.29,5.62-1.31,8.44-1.84a36.05,36.05,0,0,0,3.88-1.3,14.37,14.37,0,0,0,4.28-1.56l.25-.22a.94.94,0,0,0,.34.35c4.39,2.66,8.65,4.54,12.31,8.24,2.48,2.49,7,7,10.48,7.92A.48.48,0,0,0,154.63,37.17Z"/><path class="cls-6" d="M156.54,39.47c-.52-.54-1.34.28-.83.82a3.91,3.91,0,0,1,.56.79.5.5,0,0,0,.85,0C157.42,40.41,157,40,156.54,39.47Z"/><path class="cls-6" d="M173.22,62.89c1.63-1.62,3.19-3.13,4.85-4.56a.52.52,0,0,0,.17,0c1.7-.58,3.07-2.13,4.37-3.4,2.25-1.43,4.75-2.57,6.55-4.61a1,1,0,0,0-.46-1.71c-7.47-1.68-16,7.78-20.69,12.22-5.59,5.24-13.71,13.66-12.42,22.1a1.94,1.94,0,0,0,.48,1c.22,1.08.42,2.14.57,3.22a4.58,4.58,0,0,0,.31,2.58,2.71,2.71,0,0,0,1.38,1.48,9,9,0,0,0,2.12,4.13c.62.59,2.38,1.86,2.7,1.65a2.23,2.23,0,0,0,1.75.79l.31,0,.27,0,.06.12a1.83,1.83,0,0,0,3,.26h.15a2.32,2.32,0,0,0,2.07-1.84,14.32,14.32,0,0,0,2.93-2.06,7.71,7.71,0,0,0,1.06-1,23.7,23.7,0,0,0,7.65-4c1.06-.89-.41-2.47-1.37-1.87l-.5.16a.62.62,0,0,0-.24.08,28.77,28.77,0,0,1-6.06,1.83,17.58,17.58,0,0,0-2.23.37,15.57,15.57,0,0,1-1.17-2.42c-.89-1.74-1.8-3.51-2.66-5.26-1.16-2.37,0-4.25-.44-6.64a.77.77,0,0,0-1.27-.34,10,10,0,0,0-.84,1,.67.67,0,0,0-.64.13c.06-.14.1-.29.17-.42.36-.7-.55-1.52-1.14-.88-2.26,2.49-2.8,6-2.32,9.22.1.68.2,1.37.32,2.08-.07-.11-.12-.21-.19-.31-.23-1.56-.5-3.11-.84-4.66a2.3,2.3,0,0,0-.2-.49c.29-2.54,3.07-7.16,4-8.64C167,68.46,170.21,65.87,173.22,62.89ZM164.34,81.2c.21,1,.61,2.41,1.7,2.55a6.45,6.45,0,0,1,.59,3.73,9.39,9.39,0,0,0,.09,2.91,35,35,0,0,1-2.46-9.84C164.29,80.77,164.29,81,164.34,81.2Z"/><path class="cls-6" d="M190.16,94a13.73,13.73,0,0,0-7.27.36c-1.51.44-2.94,1-4.49,1.34a4.51,4.51,0,0,0-.61.17,2.23,2.23,0,0,0-3.43-.21c-.11.11-.22.22-.32.34a1.6,1.6,0,0,0-1.79.06c-1.43,1.12-2.61,2-2.63,3.82a2.08,2.08,0,0,0,1.51,2,5.34,5.34,0,0,0,3.47-.55c2.11.1,5.1-1,6.93-1.76,2.93-1.2,5.7-2.82,8.63-4A.8.8,0,0,0,190.16,94Z"/><path class="cls-6" d="M195.21,107.77c-1.8-1.19-2.49-3.12-4.5-4.09-2.28-1.09-4.72-1.8-7-2.8-1.27-.54-2.41,1.23-1.12,1.91,2.42,1.27,5.09,2,7.48,3.3,1.67.91,2.72,3.09,4.86,2.83A.62.62,0,0,0,195.21,107.77Z"/><path class="cls-6" d="M209.44,90a20.86,20.86,0,0,0-5.85,3.47c-1.16.91-1.77.91-3.38,1l-1.17,0a2,2,0,0,0-2.67-.19,5.17,5.17,0,0,0-1.05.87,2.35,2.35,0,0,0-.23.32l0,0a32.46,32.46,0,0,1-3,1.73c-2,1.18-.9,3.82,1.1,4.06,1.45.18,3.23-.73,4.59-1.8,2.14-.12,4-2.26,5.93-3,2.4-.95,5.73-2.29,6.89-5C210.93,90.79,210.39,89.67,209.44,90Z"/><path class="cls-6" d="M217,69.1c-3.17.42-4.64,2.45-7.49,3.66-1.37.59-2.77,1.23-4.11,1.89-.21.1-.4.22-.6.34a2.46,2.46,0,0,0-3.12-.77,4.58,4.58,0,0,0-1.78,5.68c1.33,2.4,3.89,1.19,5.61.1a21.9,21.9,0,0,0,6.13-5.33,9.21,9.21,0,0,1,3.61-3.25,4.84,4.84,0,0,0,2.26-1.66C217.77,69.39,217.36,69.05,217,69.1Z"/><path class="cls-6" d="M237.43,62.28A60,60,0,0,0,229.72,59a40.75,40.75,0,0,0-4.9-1.41,18.37,18.37,0,0,0-2.46-.16,1.41,1.41,0,0,0-1.6-.82l-1.28.22A2,2,0,0,0,218,58.77c0,.09,0,.18,0,.28.07.76.55,1.77,1.44,1.89,3.05.41,6.12-.14,9.18.34,2.91.47,5.45,2.34,8.42,2.29C237.72,63.56,238.08,62.59,237.43,62.28Z"/><path class="cls-7" d="M210.68,53.92c-3.75-2.18-10.24-1.36-11.94,2.83a3.24,3.24,0,0,0-.09.4,2,2,0,0,0-1.63.22c-.63.39-1.21.83-1.8,1.28a8.47,8.47,0,0,0-1,.79,3.47,3.47,0,0,0-.31.36s-.35.32-.18.21a1.92,1.92,0,0,0-.8,2.31c-.18.19-.35.39-.51.58a2.23,2.23,0,0,0-3.84,0,11,11,0,0,0-1.37,3.58,7.18,7.18,0,0,0-.09,1.79,1.79,1.79,0,0,0-.58.3l-.57.1a5.37,5.37,0,0,0-3.62.84c-3,1.7-5.77,7.64-4.84,11.07,1.26,4.69,5.37,3.28,8.45,1.54a3.87,3.87,0,0,0,.83.32c1,.28,3.54-1,3.84-.84a2.7,2.7,0,0,0,2.68-.71A5.49,5.49,0,0,0,194,80c3.1-1.3,5.25-6.06,6.4-10.3A24.33,24.33,0,0,0,203.07,66a14.6,14.6,0,0,0,2.18-2.77,18.46,18.46,0,0,0,5.08-2C213.36,59.43,213.88,55.77,210.68,53.92ZM192.56,73.78a2.55,2.55,0,0,0-.38-.26,2.64,2.64,0,0,0-.86-.28,8.29,8.29,0,0,0,.24-.89,3.28,3.28,0,0,0-.61-2.66A15,15,0,0,0,191.5,68a4,4,0,0,0,.93.8c-.05.18-.1.36-.14.53a2.87,2.87,0,0,0,.94,3A8.83,8.83,0,0,1,192.56,73.78Z"/><path class="cls-7" d="M149.59,43.84c-1.61-1.64-2.61-1.38-5-1.41-7.42-.1-15.66-1.18-22.87,1.1a.75.75,0,0,0,.4,1.45c6.16-.84,13.15-.08,19.38.16,1.45.06,4.36-.2,5.26.35,2.44,1.5,1.12,5.51,3.3,7.3a1.07,1.07,0,0,0,1.75-.47C152.69,49.84,151.42,45.71,149.59,43.84Z"/><path class="cls-7" d="M163.51,46.51c-.35-2.29.42-5.24-.31-7.36-2.75-8-14.09-10.92-19.65-16a.23.23,0,0,0-.32.32c4.54,5.72,11.53,8.67,15.83,14.56,2.19,3,.84,5.48.85,8.92,0,5.11.66,10.43,1.1,15.51.12,1.46,2.36,2,2.73.37C165,57.34,164.33,52,163.51,46.51Z"/><path class="cls-7" d="M156.44,91.39a3.38,3.38,0,0,0-1.69-.09,2.94,2.94,0,0,0-.89,0,2.69,2.69,0,0,0-2.33,2.58,5.13,5.13,0,0,0-.15,4.95,2.34,2.34,0,0,0,2.38,1.14,2.41,2.41,0,0,0,2-1.71,3,3,0,0,0,.16-.59c0-.7,0-.9.13-.59l.09-.37A3.34,3.34,0,0,0,158,95.18,2.62,2.62,0,0,0,156.44,91.39Z"/><path class="cls-7" d="M155.57,109.71a12.86,12.86,0,0,1-1.48-1.27c-.45-.6-.27-.74-.32-1.48s-.81-2.78-.5-3.51c.66-1.53-1.59-2.88-2.27-1.33-.54,1.21-.27,1.68-.25,2.89s-.43,2-.05,3.33a9.16,9.16,0,0,0,4.14,5.27,1.63,1.63,0,0,0,2-.25C158,112.06,156.53,110.64,155.57,109.71Z"/><path class="cls-7" d="M208.54,130.87c-2.31-6.41-6.57-12-9.49-18.14-.31-.64-1.36-.19-1.15.49,1.94,6.37,5.09,11.56,7.68,17.67,3.2,7.54.59,15.77,2.91,23.15a.49.49,0,0,0,.94,0C211.86,147.72,210.82,137.2,208.54,130.87Z"/><path class="cls-7" d="M209.05,159.61a.67.67,0,0,0-1.33,0,4.92,4.92,0,0,0,.15,1.67.54.54,0,0,0,1,0A4.92,4.92,0,0,0,209.05,159.61Z"/><path class="cls-7" d="M231.19,100.46A51.1,51.1,0,0,0,226,92.81c-2.26-2.89-5.4-4.66-7.62-7.4-.68-.83-2,.24-1.46,1.12,1.62,2.72,4.24,4.27,6.17,6.76a49.93,49.93,0,0,1,3.9,6.52c4.3,7.87,1.45,15.1,1.19,23.5a.76.76,0,0,0,1.4.38C233.18,117.75,234.42,106.82,231.19,100.46Z"/><path class="cls-7" d="M233.27,65.81c-5.93-2.32-19.7-3.65-23.27,3.22a1,1,0,0,0,1.56,1.21c4.9-4,18.61-2.75,23.74-.19,8.26,4.14,10.41,13.53,13.73,21.34.44,1,2.19.5,2.11-.57C250.26,80.17,243.31,69.73,233.27,65.81Z"/><path class="cls-7" d="M241.85,62.21c-3.41-1.52-6.83-3-10.3-4.41-2.78-1.14-5.66-3-8.74-2.34-.92.18-.64,1.51.21,1.56,1.57.1,3.32,1.2,4.76,1.81,2,.87,4,1.78,6.06,2.68,2.4,1.06,4.94,2.41,7.62,2.14C242.12,63.58,242.62,62.56,241.85,62.21Z"/><path class="cls-7" d="M150.79,84.56c-1.41-1.59-2.24-3.63-3.36-5.39s-3-3-4.42-4.64a28,28,0,0,0-3.56-3.66c-2-1.65-4.35-1.91-6.57-3.16-1.17-.66-2,1-1,1.74,1.84,1.39,4,2.3,5.73,3.83,1.53,1.34,2.6,3,4,4.45a28.15,28.15,0,0,1,4.09,5,18.65,18.65,0,0,0,2.86,4.09A1.59,1.59,0,0,0,150.79,84.56Z"/><path class="cls-7" d="M152.94,59.94c-.18-1.14-2.11-.88-2,.28.42,6.46-.31,13.44,2.3,19.48.43,1,1.68.33,1.77-.48C155.73,73,153.93,66.07,152.94,59.94Z"/><path class="cls-7" d="M199.55,84.61A5.89,5.89,0,0,0,197,85.8c-.58.16-1.18.29-1.62.46a4.66,4.66,0,0,0-2.79,2.32.9.9,0,0,0,0,.74,2.58,2.58,0,0,0-.19.37A1.33,1.33,0,0,0,194.58,91a12.41,12.41,0,0,1,2.8-1.52,10.17,10.17,0,0,0,3.21-2.3v0C201.38,86.26,200.91,84.44,199.55,84.61Z"/><path class="cls-8" d="M213.45,56.23c-2.21-2.86-7.81-2.45-10.58-.75a2.25,2.25,0,0,0-1.07,2.65,16.67,16.67,0,0,0-3.08,2.66,30.38,30.38,0,0,0-2.49,4.41,2.11,2.11,0,0,0-2.3-.07,9.2,9.2,0,0,0-1.92,2,21.34,21.34,0,0,1-1.72,1.57,6.53,6.53,0,0,0-1.88,2.66h-.1a2.08,2.08,0,0,0-2-1.49,5.39,5.39,0,0,0-3.81,1.81,8.61,8.61,0,0,0-2.73,3.4,2.41,2.41,0,0,0,1.43,3,2.18,2.18,0,0,0,.43,2.67,4.2,4.2,0,0,0,5.8,0,4.42,4.42,0,0,0,.89.38,3.94,3.94,0,0,0,2,.06,3,3,0,0,0,.49.29,5.25,5.25,0,0,0,.82.27,3.47,3.47,0,0,0,2.76.66,3.37,3.37,0,0,0,2.83-2.59c1.46-1.76,1.18-5.36,2.27-7,.39-.56,1.31-1,1.79-1.47.94-1,1.47-2.31,2.33-3.36a22.5,22.5,0,0,1,6.61-5.17c1.45-.7,2.73-.52,3.6-2.07A4.19,4.19,0,0,0,213.45,56.23Z"/><path class="cls-8" d="M163.63,50.32c-.28-2.62-1-5.17-1.27-7.82-.15-1.78.06-2.73-1.44-4a1.35,1.35,0,0,0-.22-.14,1,1,0,0,0,0-.84,5.14,5.14,0,0,0-1.19-1.74c-.37-.32-.6-.74-1.06-.95a.65.65,0,0,0-.62,0,.18.18,0,0,1-.07,0,.49.49,0,0,0-.24.43,6.14,6.14,0,0,0,.36,1.3,8.11,8.11,0,0,0,1.26,1.82.68.68,0,0,0,.12.12,1.07,1.07,0,0,0-.25,1.06c.76,3,.88,6.25,1.46,9.27s1.28,11-.78,13.76c-1.07,1.43,1.32,3.27,2.48,1.92C165.12,61.14,164.07,54.46,163.63,50.32Z"/><path class="cls-8" d="M154.67,30.32a29.41,29.41,0,0,0-2.88-3.12c-.93-.74-2-1.1-2.93-1.93-1.1-1-2.12-3.45-3.91-2.86a.58.58,0,0,0-.26,1c1.27,1.07,2.3,2.46,3.62,3.47.87.68,2,1,2.83,1.68s1.75,1.83,2.64,2.68A.63.63,0,0,0,154.67,30.32Z"/><path class="cls-8" d="M151.25,42.77a1.38,1.38,0,0,0-1.19-.68,152.15,152.15,0,0,1-23.58.16c-1-.08-1.2,1.55-.23,1.7,5.79.9,11.08,1.7,17,1.36a24.18,24.18,0,0,0,4.67-.48,6.68,6.68,0,0,1,1-.21c1.26,2.82,1.64,6.23,2.6,9.16.23.68,1.44.85,1.56,0C153.59,50.43,153.06,45.67,151.25,42.77Z"/><path class="cls-8" d="M153.83,63.43c-.17-1-1.66-.56-1.49.41,1,5.63-.58,11.69,1.48,17.07a.62.62,0,0,0,1.21-.17C155.75,75,154.8,69.11,153.83,63.43Z"/><path class="cls-8" d="M147.73,77.13c-4-3.85-7.65-7.23-12.75-9.63a1,1,0,0,0-1,1.78c6.73,4.17,14.24,10.06,18,17.22.43.82,1.5.33,1.59-.44C154,82.55,150,79.27,147.73,77.13Z"/><path class="cls-8" d="M155,110.17c-1.27-.52-1.11-4-1.46-5.25-.48-1.76-.69-2.77.24-4.45,1.76-3.21,4.71-5,2.87-8.9a1.92,1.92,0,0,0-3.29,0,5.85,5.85,0,0,0-.85,3.74c.06.33.46.91.45,1.19,0,.72-.34.75-.67,1.4-1,1.94-1.06,3.24-1.51,5.34-.65,3.06,1,3.71,1.67,6.78.35,1.64.2,2.69,2.17,2.92C156.33,113.15,156.31,110.71,155,110.17Z"/><path class="cls-8" d="M257.64,95.75c-5.09-8.35-10.18-17.92-16.72-25.19s-15.77-6.47-24.55-5.5a.86.86,0,0,0,0,1.71c4.79.54,9.72-.64,14.38.83a20.62,20.62,0,0,1,11.09,8,113.62,113.62,0,0,1,7.9,11.37c.58,1,1.1,2.07,1.61,3.15a1.31,1.31,0,0,0-.7,1.75,28.11,28.11,0,0,0,1.68,3.39c.52.86,1.53,2,2.62,1.94a1.21,1.21,0,0,0,.66-.27c.09.08.16.17.24.25A1.14,1.14,0,0,0,257.64,95.75Z"/><path class="cls-8" d="M241.08,61.27a47.34,47.34,0,0,0-8.83-4.35,21.45,21.45,0,0,0-8.66-1.55.67.67,0,0,0-.33,1.24c2.45,1.29,5.64,1.9,8.28,2.89,2.84,1.08,6.08,3.16,9.16,3.19A.77.77,0,0,0,241.08,61.27Z"/><path class="cls-8" d="M221.24,87.11c-.93-.63-2,.79-1.2,1.55,5.51,5.13,11.35,12.42,10.78,20.36-.4,5.58-3.15,11.08-3,16.57a.73.73,0,0,0,1.35.37C237.06,112.88,233.82,95.65,221.24,87.11Z"/><path class="cls-8" d="M212.17,136.35c-1.62-7.94-6.36-16.32-11.75-22.18-.64-.7-1.78.2-1.3,1,4,6.72,10.09,15.74,10.58,23.77.43,7.05-2.84,14.06-2.38,21.23a1.08,1.08,0,0,0,2.1.29c1.63-4.44,1.72-9.91,2.41-14.65C212.32,142.53,212.84,139.64,212.17,136.35Z"/><path class="cls-9" d="M198.51,66c-2.6-.28-4.1,3.25-4.44,5.9-.9.26-1.79.49-2.65.66A2.44,2.44,0,0,0,189.77,74c-.25.27-.49.54-.76.79-.08.07-.13.15-.2.22l-1.09.42c-2.28.95-1.33,4.7,1,3.78a10.75,10.75,0,0,0,1.42-.66,2.07,2.07,0,0,0,2-.57,5.59,5.59,0,0,0,.49-.62,2.75,2.75,0,0,0,1.58-1.12c-.32.46,0,.12.25-.08s.43-.39.65-.57a8.48,8.48,0,0,1,1.55-1,1.31,1.31,0,0,0,.34-.27,4.45,4.45,0,0,0,2-2.62c.5-1.24,1.49-2.38,1.45-3.74A2.1,2.1,0,0,0,198.51,66Z"/><path class="cls-9" d="M210.69,58.59c-1.61-2.76-5.51-.72-5.43,1.9a3.85,3.85,0,0,1-1.27,1.2,7,7,0,0,0-2.18,1.45,1.78,1.78,0,0,0,2.52,2.52,4.34,4.34,0,0,1,1-.43,7,7,0,0,0,1.33-.88,6.88,6.88,0,0,0,.9-.89,4.83,4.83,0,0,0,.44-.64,2.33,2.33,0,0,0,.94-.29,6.26,6.26,0,0,0,.59-.46.51.51,0,0,0,.21-.07l-.15,0h0A2.38,2.38,0,0,0,210.69,58.59Z"/><path class="cls-10" d="M163.49,99.34a2.1,2.1,0,0,0-.54-.27,2.87,2.87,0,0,0-4.93-.13,2,2,0,0,0-.11.19l-.06.06-.27.24a4.94,4.94,0,0,0-3,5.94c.62,2.52,3,4.23,5.41,4.87a4.62,4.62,0,0,0,4.07-.61,4.83,4.83,0,0,0,1.44-3.2C165.82,104,165.85,101.15,163.49,99.34Z"/><path class="cls-10" d="M140.88,94.69a3.06,3.06,0,0,0-3.4-1.38,4.44,4.44,0,0,0-2.6,2.4,2.62,2.62,0,0,0-.9,1.43,3.11,3.11,0,0,0,1.36,3.35,4.14,4.14,0,0,0,1.72.58,3.52,3.52,0,0,0,3.31-1A4.66,4.66,0,0,0,140.88,94.69Z"/><path class="cls-11" d="M165.34,102.08a8.36,8.36,0,0,0-1.84-1.62,4.08,4.08,0,0,0-1.56-.6,3,3,0,0,0-.59,0,2.07,2.07,0,0,0-.82.16,2,2,0,0,0-1.74,1.37,3,3,0,0,0-1,1.51,3.37,3.37,0,0,0,0,1.45,3.57,3.57,0,0,0-.06,1.78,4,4,0,0,0,3.87,3.18,3.64,3.64,0,0,0,2-.75,3.85,3.85,0,0,0,1.23-.62A4,4,0,0,0,165.34,102.08Z"/><path class="cls-11" d="M138.83,94.41a3.31,3.31,0,0,0-2.24,2.36.63.63,0,0,0,0,.13,4.61,4.61,0,0,0-.17.47,3.2,3.2,0,0,0-.09,2c.45,2.07,3.29,2.26,4.37.65A2.39,2.39,0,0,0,143,97.54,3.37,3.37,0,0,0,138.83,94.41Z"/><path class="cls-12" d="M161.51,102.55a2.7,2.7,0,1,0,2.7,2.7A2.73,2.73,0,0,0,161.51,102.55Z"/><path class="cls-12" d="M140,95.21a2.45,2.45,0,1,0,2.45,2.45A2.48,2.48,0,0,0,140,95.21Z"/><path class="cls-14" d="M288.29,166.17c-13.83-3.67-27.08-4.25-41.37-2.64-7,.79-14.49,1.26-21.29,3.14-3,.81-6.84,1.63-10.3,2.94l1.41-2.68c4.42-8.39,9.14-18.51,11.44-28.06,2.28-1.14,3.09-4.24,3.75-6.45.8-2.68,1.55-5.46,2.26-8.22a1.13,1.13,0,0,0,1.73.66c7-4.12,16.52-6.41,24.26-8.55,5.08-1.4,10.2-2.62,15.5-2.49,3.35.08,6,.46,9.36-.32,2.57-.61,1.73-4.08-.59-4.32a65.38,65.38,0,0,0-15.41.22c-.84-6.88-8.76-13.71-12-19.48-2-3.69-3.39-7.72-5.07-11.58.34-.5.65-1,1-1.52a1,1,0,0,0,1.05.45,74.9,74.9,0,0,0,9-2c3.36-.88,6.73-1,9.76-2.83a1.63,1.63,0,0,0-.38-2.94c-1.95-.4-3.47.44-5.4.78a46.83,46.83,0,0,0-7.35,2,27,27,0,0,0-5.17,1.91c3.69-6.28,6.88-13.18,10.35-19.35,4.85-8.59,10-19,12.55-28.56a1.41,1.41,0,0,0-2.56-1.08c-6.48,9.07-9.67,19.88-15.16,29.54a178.21,178.21,0,0,0-8.66,16.32c-1.39-6.17-6-10.79-11.94-13.7-3.49-1.72-8.92-4.69-13.53-4.7,2.79-2.32,5.6-4.59,8.2-7.15,5.28-5.22,11.72-8.9,17.25-13.84,9.55-8.53,20.63-17.36,27.6-28.22.67-1.06-.63-2.15-1.63-1.63-6.13,3.18-9.92,8.53-14.61,13.43a161.18,161.18,0,0,1-19.08,16.61c-5.72,4.31-10.77,8.58-16,13.4-1.12,1-2.61,2.15-4.12,3.41.57-7.8-5.22-17.65-12.55-20.82l1.51-.59C229.5,20.73,247,13.67,263,4.05a1.6,1.6,0,0,0-1.23-2.91c-8.94,2.35-17.46,8.12-26,11.81-8.84,3.84-17.69,7.5-26.71,10.93l-3.29,1.25c6-6.43,5.88-15.61,6.87-23.72a1.41,1.41,0,0,0-2.39-1c-2.34,3-2.09,7.44-3,11.07-1.13,4.36-4.27,8.17-5.09,12.49a1.93,1.93,0,0,0,1.08,2.13c-4.88,1.86-9.74,3.74-14.58,5.76-6.58,2.74-14.52,5-20.88,8.72A11.11,11.11,0,0,0,166,37.35c-.65-.8-1.34-1.59-2-2.38,0,0,0,0,0-.06,2-4.18,1.13-8.78,1.07-13.3-.06-5.12-.29-10.27-.56-15.39-.13-2.43-3.92-2.45-3.8,0,.39,8.5,0,17,.21,25.51A190.51,190.51,0,0,0,143.12,16.6c-6.2-4.85-13.68-3.58-20.93-1.56-4.74,1.32-12.45,5.17-13.62,10.63-.08-1.46-.23-2.94-.46-4.43-.89-5.8,0-12.78-2.51-18-.37-.78-1.47-.47-1.71.23-1.58,4.64-.94,10.31-.18,15.15a87.1,87.1,0,0,1,1.23,20.07,1.1,1.1,0,0,0,.23.76c-6.07.88-11.88,2.82-16,7.07C84.41,51.38,82.55,59,79.32,64.87c-1.91,3.46-4.48,7.36-4.62,11.46a7.63,7.63,0,0,0-.52,2.55c-6.83,3-13.83,5.63-20.57,8.81.43-3,.23-6.25.4-8.61.64-9.16-.53-18.11-1-27.22-.39-7.44-.53-14.75-1.5-22.15-1.23-9.46-3.91-17.35-6.85-26.28-.32-1-2-.88-1.89.26C43.45,11.46,46,19.15,47,27c.87,6.78,1.41,13.66,1.64,20.5.46,14,3.13,29.09-.45,42.95l-.73.38c-3.7,2.07-7.9,3.07-11.74,4.88-4.14,2-8,4.26-12.26,6-2.75,1.16-8.3,1.76-9.76,4.75a25.13,25.13,0,0,0-4.54,2.58c-2.23,1.55-5.9,3.16-7.69,5.53-.12,0-.23,0-.35-.06a1.18,1.18,0,0,0-.82,2c.09.08.17.18.25.26a1.85,1.85,0,0,0,1.73,1.78c5.06,5.57,9.26,13.14,13,19.38a174.53,174.53,0,0,1,14.15,29.42,208.92,208.92,0,0,1,7,26.18c2.07,9.49,1.8,18.53,2.82,28.08a1.8,1.8,0,0,0,.78,1.23q-14.41,13.65-28.84,27.33c-1.57,1.49.45,4.06,2.31,3,5.67-3.29,9.76-8.45,14.55-12.82s9.74-9,14.5-13.68l.8-.75a1.68,1.68,0,0,0,.28.34c11.31,9.34,26.27,14.12,38.54,22.1,12,7.78,22.28,17.48,33.33,26.37,5.33,4.28,9.53,9.33,14.44,14,3.33,3.17,6.67,4.66,11.08,2.8,5.82-2.45,11.5-8,16.17-12.2,4.89-4.4,5.72-9.83,9.69-14.83a2.7,2.7,0,0,0,.59-1.77c5.56-8.68,10-18,14.24-27.41,5.19-1.21,9.92-3.72,15.19-5.08a155,155,0,0,1,26.27-4.57c8.14-.65,16.4-.65,24.57-1.1,8.92-.48,17.09-1.12,26,.46,2.25.41,4.13-2.9,1.69-4-7.34-3.36-15.29-2.57-23.11-1.93-8.86.72-17.76.86-26.62,1.2a125.49,125.49,0,0,0-25.9,4.1,65.11,65.11,0,0,0-10.59,3.34,54.37,54.37,0,0,0-5.47,3.11c4.87-11,9.65-22,15.76-32.19,4.75-8,9.12-16.21,13.44-24.43,2.62-.77,5.6-.77,8.15-1.44a74,74,0,0,1,12-2.61c7.18-.71,14.41-1.76,21.62-2s15.33-.86,22.36.93c3.43.88,9.24,3.89,12.14.57A2.08,2.08,0,0,0,288.29,166.17Zm-57.91-47.68c-1,4.26-2.22,8.34-3,12.66-.37,1.94-.59,3-.71,3.48l-.07.11c.11-.8.7-4.07,1.19-6.11.44-1.81,1-3.55,1.29-5.4,1-6.48,2.69-15-.07-21.14s-8.33-10.68-13.28-15-7.23-3.39-12.84-.42c-7.94,4.22-15.27,8.14-24.12,10.12A39.82,39.82,0,0,1,174.19,98a4.93,4.93,0,0,1-1.71-.22c4.58-2.17,9.27-4.16,13.82-6.44,3.47-1.74,6.84-4,10.4-5.47a22.46,22.46,0,0,1,2.77-.92,1.9,1.9,0,0,0,2.3.73c3-1,6.83-2.78,9.92-2.35,4.7.65,9.18,5.85,12.26,9.36,2.76,3.14,7.1,7,8.25,11.13C233.28,107.67,231.29,114.64,230.38,118.49Zm-4.48-8.14c-1.13-2.65-4.08-5-5.85-6.75-3.08-3.09-6.81-4.51-10.57-6.41,2-1.31,4.16-3.23,5-5.29a39.2,39.2,0,0,1,9.81,11.57A18.12,18.12,0,0,1,225.9,110.35ZM209.12,89.67c0,.06,0,.1,0,.15a32.44,32.44,0,0,1-2.83,2.58A23.62,23.62,0,0,1,201.43,95c-1.43.68-2.74,1.6-4.22,2.13l-.75.25a2.62,2.62,0,0,0-.84-.66c.84-.41,1.69-.8,2.51-1.24C201.12,93.84,205.58,90,209.12,89.67Zm-102.49-35a2.33,2.33,0,0,0-.27-.78c4.89-.55,10-.55,14.38-1,5.63-.55,11.21-.7,16.86-.7h2.08c-1.33.76-2.66,1.67-4.18,2.48-2.73,1.47-5.5,2.71-8.18,4.27-1.09.63-3.23,2.34-4.92,3.19a45.81,45.81,0,0,0-9.61,1.58c-2.73.71-5.27,1.44-7.69,2.26a16.24,16.24,0,0,0,.58-2.11C106.27,61.17,107,57.52,106.63,54.71Zm40.78,17.87A42.28,42.28,0,0,0,139,66.27a30.88,30.88,0,0,0-9.33-3.55c.48-.31.94-.59,1.35-.83,2.81-1.59,5.88-2.68,8.59-4.45a66.5,66.5,0,0,1,6.82-4.09,3.89,3.89,0,0,1,.11,1.19c1.08,2.11.69,5.77.71,8.14C147.23,65.87,147.25,69.22,147.41,72.58Zm-37.29-2.72c8.44-2.12,15.92-4,24.12-.13,5.73,2.68,11.64,7.61,14.44,13.68.22,1,.48,2.09.78,3.1h-.09c-5-5.79-9.73-11.35-17.29-14.35-9.36-3.72-16.83-4.25-26.4-.46A64.86,64.86,0,0,0,84.82,85.46c.65-.8,1.33-1.59,2.05-2.33A46.21,46.21,0,0,1,110.12,69.86Zm47.26,24.93a6.94,6.94,0,0,0-3.17,2.85,9.8,9.8,0,0,0,.39,14,10.82,10.82,0,0,0,5.84,2.13,9.38,9.38,0,0,1-3.83,1.41c-3.48.57-7.37.73-9.94-2s-3.45-5.56-5-8.58a9.36,9.36,0,0,0,2.88-2.12c2.35-2.47,2.22-5.94.66-8.65,1.68-3.16,5.7-3.66,9-2.56A10.61,10.61,0,0,1,158,93.59a4.08,4.08,0,0,1,.61.79A11.83,11.83,0,0,0,157.38,94.79Zm5.1,3.71c.83.44,1.52,2.81,1.88,3.68a8.7,8.7,0,0,1,.69,4.3c-.26,1.83-1.12,3-3,3-1.62,0-4-.38-5.19-1.54a6.9,6.9,0,0,1-1.83-5.79,1.35,1.35,0,0,0,1.16-.48c.36-.46.93-.53,1.33-.9s.63-1,1-1.34C159.08,99,161.62,98,162.48,98.5ZM137.1,95a1.62,1.62,0,0,1,1.91-.35c2,.72,3.19,3.21,1.5,4.78a4.45,4.45,0,0,1-5.69-.46,1.88,1.88,0,0,1-.37-.69,2.09,2.09,0,0,0,.93.22,2.22,2.22,0,0,0,2.19-2.18A2.12,2.12,0,0,0,137.1,95ZM141,90.1c-2.25-.85-5.32-.79-7.16.94l-.15.17a4.08,4.08,0,0,0-3.33,3.32c-.19.68-.35,1.34-.47,2-4.57-7.58-10.51-15.75-17.45-21a32.41,32.41,0,0,1,16.37.7c6.75,1.93,11.84,7,16.85,11.72a7.09,7.09,0,0,0-2.7,3.29A8.06,8.06,0,0,0,141,90.1ZM104.56,78c1.17-.49,2.31-.91,3.43-1.3a102,102,0,0,1,20.26,26.69c4.46,8.68,5,17.4,7.31,26.63a2.34,2.34,0,0,0,.43.88c-1.1,1-2.21,2-3.31,3.07-6.65,6.34-13.4,12.57-20.09,18.87-6.35,6-12.56,12.08-18.76,18.21-.67-16.38-7.13-33.41-15.53-47.18-2.81-4.61-5.4-8.89-8.41-13a3.57,3.57,0,0,0,.4-.46C78.86,97.79,90.23,84.09,104.56,78Zm29.59,26.33a13.53,13.53,0,0,0,2.84.72c0,.11.06.22.1.33,2.07,4.87,4.9,11.9,10.22,14.37a73.82,73.82,0,0,1-7.07,7.29A73.51,73.51,0,0,0,134.15,104.35Zm16.57,16.33a24.67,24.67,0,0,0,10.49-1.49,7.66,7.66,0,0,0,5.47-6.57,7,7,0,0,0,2-2.54,9.53,9.53,0,0,0,.89-3.38c5.48,1.13,12.23-1.15,17.42,1.4,6.52,3.2,11.35,17.82,13.11,24.42,2.15,8,1.92,16.67,2,24.92,0,3.74-.58,8.14-.69,12.39-2.22-3-4.61-5.67-5.89-7.66-5.45-8.57-11.66-13.54-19.89-19.34-3.26-2.3-22.89-13.53-32-13.71A42,42,0,0,0,150.72,120.68Zm67.66-40.21a12.82,12.82,0,0,0-5.76-2.55c1.47-1.76,3-3.4,5.37-3.93,4.79-1.06,13.69,1,17,4.15,3.5,3.28,6.39,7.38,9.26,11.45-2.4,3-4.14,6.88-6.11,10.17-.41.68-.78,1.39-1.15,2.1a12.31,12.31,0,0,0-.85-2.18C232.43,92.33,225,85.33,218.38,80.47Zm43.47,30.3c-1.8.45-3.61.94-5.46,1.54-6.92,2.26-16.95,4.67-21.84,10.47.24-1,.48-2,.71-2.94.57-2.4,1.29-5.08,1.78-7.82,1.39-1.77,2.31-5.06,2.73-6,1.27-2.82,2.92-5.3,4.37-8,.88-1.65,1.56-3.52,2.43-5.21,1.12,1.54,2.26,3,3.46,4.46C253.73,101.62,257.55,106.78,261.85,110.77ZM254.2,94.93c.37.58.78,1.15,1.17,1.73-1.11-1.28-2.23-2.55-3.29-3.84-4.53-5.49-8.47-11.59-13.09-17.07-4.9-5.81-11.65-6.61-19-7-3.06-.17-5.29-.08-7.78,1.81-1.47,1.11-9.82,11.13-10.07,7.41a3,3,0,0,0-.34-1.17c5.12-8.17,12.15-12.58,22.64-10.6,4.68.88,9.4,2.33,14,3.61,3.59,1,2.74.76,4.52,3.73C247.07,80.44,249.92,88.05,254.2,94.93Zm-32.78-39a1,1,0,0,0,1,.15c3.51-1.43,10.08,3,13.27,4.42a28.1,28.1,0,0,1,7.58,4.91c-4-2.32-10.81-3.14-15-4.13a42.19,42.19,0,0,0-9.78-1.35c0-.18,0-.35-.06-.53a.94.94,0,0,0,.61-.69A6.16,6.16,0,0,1,221.42,55.93ZM168.54,44.18c12.62-3.63,24.9-9.32,37.18-14.32,8,2.38,13.78,13.49,12.53,21.14a2.25,2.25,0,0,0,.61,2.06,9.82,9.82,0,0,0-1.51,2.78c-2.2-4-7-6.42-11.31-7.83-8.26-2.71-14.85-3.45-23.24-.61a54.23,54.23,0,0,0-15,7.91A38.54,38.54,0,0,0,168.54,44.18Zm13.62,9.71c9.9-4.08,24.82-3.2,30.82,6.75-.26.06-.51.11-.76.18-6.41,1.92-11.77,8.81-14.3,15.24a2.6,2.6,0,0,0-.9,1.87,7.65,7.65,0,0,0,0,.83v0a1.49,1.49,0,0,0,.11,1c0,.13.07.24.1.36-5,1.84-9.61,5.12-14.37,7.51s-10.38,4.47-14.43,8a2.93,2.93,0,0,0-2,.44,7.07,7.07,0,0,0-1.27-1.34,4.38,4.38,0,0,0-1.56-.73c-.41-2.43-2.52-4.53-5.26-5.93a2.28,2.28,0,0,0,.11-.61q-.06-4.61-.17-9.21a1.21,1.21,0,0,0,.59-.63C163.18,66,170.56,58.67,182.16,53.89ZM118.24,22.48l.16-.1a.77.77,0,0,0,1.13.1c.93-.73,2.15-1.17,2.91-2.09,1.67-.47,3.44-.75,5.08-1.07,3.67-.71,7.44-1.6,10.84.25,2.91,1.6,5.57,4.63,8.19,6.71,4.6,3.65,12,9.6,15.2,14.6,3.82,6-.59,13.44.29,19.8-.38.45-.75.9-1.09,1.36a94.61,94.61,0,0,0-.54-12.83c-.79-7.65-5.62-12.57-11.13-17.55-5.21-4.7-11.2-12.25-18.78-12.14-3.89.06-6.74,1.42-10.19,3-1.67.77-3.22,1.27-4.68,1.84C116.52,23.81,117.39,23.12,118.24,22.48ZM107.64,39a59.76,59.76,0,0,0,1-10.78,1.76,1.76,0,0,0,.85.93,4.5,4.5,0,0,0,1.13.34,1.26,1.26,0,0,0,1.4.13c.17-.09.34-.15.51-.23a5.57,5.57,0,0,0,.77-.3c2.17-.76,4.77-1,6.87-1.83,3.56-1.35,6.81-3.44,10.78-3,5.88.65,11.43,7.85,15.64,11.76.89.81,1.67,1.61,2.4,2.4-1.53-.09-3.17,0-4.8,0-7.79.13-15.58.36-23.39.28a120,120,0,0,0-13.21.38S107.64,39.06,107.64,39Zm-13,9.58c8.61-5.59,20.58-4.46,30.3-4.45,5.19,0,10.4.11,15.58-.08,1.65-.06,8.22-1,9.79.15,1.23.86.95,6.23,1.21,8.2.84,6.52,1,13.09,1.44,19.63.11,1.78.07,3.61,0,5.45-.24-2.51-.49-5-.68-7.55-.45-5.71.29-11.82-1.11-17.44-1.07-4.31-3.61-4.88-7.81-5.14a147.6,147.6,0,0,0-24.34.91c-10,1-21.83.12-30,7A16.85,16.85,0,0,1,94.69,48.6ZM55.26,92c9.55-4.34,23.88-6.6,30.31-15.55.93-1.29-.84-2.73-2.06-2.06-1.44.79-2.89,1.53-4.36,2.24,1-1.46,2.06-2.93,2.77-4.1,3.08-5,5.91-10.46,10.82-14a24,24,0,0,1,9.72-3.92c-.38,2.14-.62,4.34-.82,6.5-.18,2-.23,4.48-1.2,6.26a1.55,1.55,0,0,0-.17.57A49.37,49.37,0,0,0,85.93,77C81,81.51,77.66,86.67,74.27,92.38,71.56,97,68,101.52,66.53,106.7c-1-1.22-2.14-2.43-3.33-3.62-2.46-2.47-7.76-8.27-12.26-9.21C52.39,93.24,53.84,92.61,55.26,92ZM42.77,220.27C45.3,201,40.44,181,33.07,163a172.35,172.35,0,0,0-16.61-31.73C14.22,128,10.39,120.81,6.13,117c1.58-1.08,3.07-2.46,4.48-3.44,3.33-2.3,6.51-4.48,10.4-5.77a1.25,1.25,0,0,0,.88-1.21,21.68,21.68,0,0,0,2.75-.69,80.65,80.65,0,0,0,9.94-4.47c4-2.16,8.37-4.08,12.69-6A1.68,1.68,0,0,0,48.79,97c2.45,0,7.41,5.88,9.27,7.67a101.47,101.47,0,0,1,7.23,8.51c5,6,8.62,13.71,12,20.68,3,6.05,4.94,12.36,7.39,18.65,2.9,7.43,3.25,15,5,22.66-4.15,4.11-8.32,8.22-12.52,12.28Q60.09,204,42.77,220.27Zm121,40.17a2.58,2.58,0,0,0-.47.42c-3.88,4.46-5.12,10.13-9.54,14.25a79.28,79.28,0,0,1-6.69,5.43c-2,1.54-4.51,4.6-6.87,5.28-6.44,1.85-11.89-7.07-16.22-11.05s-9-7.42-13.44-11.28c-19.5-17.11-41.39-29.18-65-39.66,11.91-11.48,24.14-22.64,35.9-34.28l13.35-13.2c17.19,2.35,33.33,10.28,48,19.29,7,4.34,14.4,9.31,20.38,15,6.75,6.43,9.62,13,13.62,21.15a1.86,1.86,0,0,0,.72.81C173.06,242,168.65,251.34,163.77,260.44Zm30.37-61.61c-5.2,9.33-9.8,19-14.33,28.69-5.16-16.32-20.71-27.36-34.8-35.81a165.85,165.85,0,0,0-27.58-13.77c-5.39-2-12.44-5.13-18.87-5.34q9-8.88,18.1-17.7c6.86-6.62,13.78-13.16,20.64-19.77.81-.77,1.61-1.52,2.41-2.26a.85.85,0,0,0,.85.1c1.6-.66,5.36,1.19,7,1.66a69.35,69.35,0,0,1,10.17,3.87c5.7,2.67,11.34,5.27,16.41,9,7,5.16,12.5,9.58,17.27,17.06,3.84,6,8.5,11.14,10.59,18.07a2.22,2.22,0,0,0,.55.92Q198.39,191.23,194.14,198.83Zm12.37-35.65s0-.08,0-.12c.15-5.7.08-11.43-.11-17.13a67.3,67.3,0,0,0-5.32-24.37c-2.31-5.57-5.15-14.26-10.61-17.44-2.43-1.41-5.59-1.85-8.38-2.17l.42-.13a68.82,68.82,0,0,1,9.21-.52c2.9,4.25,5.06,9.24,7.65,13.64,3.66,6.23,7.8,13.74,9,21C209.82,145.43,208.63,154.34,206.51,163.18Zm2.88,7.66c3.56-12.13,6.42-24.71,3.41-37.39-1.84-7.73-5.5-15.17-9.57-21.91-1.65-2.74-3.27-6.34-5.33-9.41a8.67,8.67,0,0,0,3-.64c2.06-.86,4.32-1.94,6.33-3,3.07,2.75,6.83,4.61,9.66,7.6a38.26,38.26,0,0,1,4.06,4.39c.95,1.37,1.35,3,2.81,3.88a1.56,1.56,0,0,0,2.06-.36c-.4,6.39-2.37,13.21-2.89,18.64-.21,2.2.05,5.31,1.71,6.41C220,149.86,214.86,160.43,209.39,170.84Z"/></g></g></svg>