<svg width="184" height="197" viewBox="0 0 184 197" fill="none" xmlns="http://www.w3.org/2000/svg">
<path d="M182.49 131.83C175.35 126.96 167.91 122.61 160.24 118.76C151.19 101.99 152.1 82.59 162.32 66.52C162.33 66.5 162.34 66.49 162.35 66.47C167.49 64.08 172.65 61.73 177.86 59.48C179.63 58.71 178.1 56.13 176.35 56.89C170.27 59.53 164.24 62.27 158.25 65.09C137.55 59.33 122.6 41.98 119.49 20.77C122.15 14.73 124.98 8.74996 127.97 2.84996C128.84 1.12996 126.25 -0.390045 125.38 1.33996C122.68 6.67996 120.12 12.08 117.68 17.53C117.53 17.59 117.39 17.69 117.26 17.85C107.52 30.23 91.2 33.9499 76.72 28.5199C75.61 23.9299 74.5 19.33 73.39 14.74C72.94 12.86 70.04 13.66 70.5 15.54C71.68 20.42 72.85 25.29 74.03 30.17C72.24 43.22 61.03 51.7599 48.17 51.8599C45.39 49.1399 42.59 46.4399 39.76 43.7699C38.36 42.4399 36.23 44.56 37.64 45.89C40.28 48.39 42.9 50.91 45.5 53.44C45.61 53.67 45.78 53.86 46.04 53.97C46.26 54.19 46.48 54.41 46.71 54.62C49.78 77.19 44.44 100.08 31.9 119.05C21.59 123.46 11.48 128.39 1.64 133.84C-0.0500028 134.77 1.45998 137.37 3.14998 136.43C11.6 131.76 20.23 127.47 29.03 123.57C50.64 127.95 66.41 146.05 67.45 168.25C67.46 168.39 67.5 168.5 67.54 168.62C67.54 168.7 67.53 168.77 67.53 168.85C67.47 169.03 67.46 169.22 67.5 169.4C67.16 176.39 67.34 183.42 68.06 190.43C68.25 192.33 71.26 192.35 71.06 190.43C70.32 183.21 70.16 175.99 70.55 168.81C82.36 157.27 100.89 157.62 112.28 169.92C112.41 170.06 112.56 170.15 112.7 170.21C114.38 178.3 115.7 186.48 116.62 194.72C116.83 196.62 119.84 196.64 119.62 194.72C118.73 186.78 117.49 178.91 115.92 171.12C119.68 147.26 137.25 128.36 160.9 123.04C161.15 122.98 161.33 122.87 161.46 122.72C168.17 126.23 174.7 130.12 180.99 134.41C182.58 135.51 184.08 132.91 182.49 131.83ZM156.87 117.08C149.11 113.36 141.12 110.18 132.95 107.51C132.94 107.44 132.92 107.37 132.89 107.3C129.18 98.3299 129.75 88.57 134.49 80.19C142.48 76 150.57 71.99 158.73 68.14C150.19 83.4 149.45 101.27 156.87 117.08ZM99.83 99.76C103.05 97.81 106.3 95.89 109.55 94C108.51 96.24 107.95 98.6399 107.91 101.11C105.22 100.61 102.53 100.15 99.83 99.76ZM95.08 99.13C95.05 99.13 95.01 99.12 94.98 99.12C96.08 93.45 97.31 87.81 98.67 82.2C100.63 86.25 104.03 89.48 108.37 91.21C103.91 93.8 99.48 96.44 95.08 99.13ZM92.74 94.99C91.3 89.03 89.86 83.06 88.42 77.1C91.02 78.72 94.23 78.79 96.82 77.27C95.31 83.14 93.95 89.05 92.74 94.99ZM89.86 95.87C86.74 92.31 83.6 88.77 80.41 85.26C82.94 84.64 84.7 82.04 85.87 79.34C87.2 84.85 88.53 90.36 89.86 95.87ZM89.78 100.33C86.13 101.15 82.49 102.03 78.88 102.97C80.71 98.72 81.12 94.02 80.2 89.51C83.43 93.08 86.62 96.6899 89.78 100.33ZM87.21 104C85.45 106.95 83.8 109.96 82.27 113.02C81.63 110.44 80.03 108.13 77.88 106.34C80.98 105.52 84.09 104.74 87.21 104ZM90.08 105.05C91.51 107.91 92.89 110.79 94.21 113.7C90.96 112.93 87.54 113.4 84.64 115C86.31 111.62 88.12 108.3 90.08 105.05ZM92.72 103.64C93.04 103.71 93.39 103.67 93.76 103.44C94.43 103.03 95.11 102.63 95.78 102.21C98.71 102.57 101.63 103.01 104.54 103.51C100.92 105.49 98.24 108.91 97.16 112.93C95.73 109.81 94.25 106.72 92.72 103.64ZM110.15 101.54C110.13 98.61 110.89 95.86 112.46 93.29C112.69 92.92 112.67 92.56 112.51 92.26C118.63 88.75 124.81 85.34 131.04 82.03C127.58 89.81 127.26 98.52 130.24 106.63C123.65 104.59 116.94 102.9 110.15 101.54ZM110.56 89.94C110.44 89.71 110.23 89.52 109.92 89.41C104.81 87.68 100.98 83.5 99.62 78.39C101.45 71.2 103.49 64.07 105.74 57.01C110.41 67.61 119.69 75.66 130.96 78.68C124.1 82.31 117.3 86.06 110.56 89.94ZM103.98 52.78C101.77 59.47 99.75 66.22 97.93 73.03C97.92 73.04 97.92 73.0399 97.91 73.0499C95.66 76.8799 90.52 77.29 87.84 73.62C87.74 73.48 87.62 73.3799 87.5 73.2999C85.88 66.5999 84.27 59.9 82.65 53.2C89.42 56.95 97.29 56.82 103.98 52.78ZM80.36 56.5C81.88 62.78 83.39 69.07 84.91 75.35C84.03 78.54 82.22 83.87 78.33 82.99C74.7 79.03 71.04 75.09 67.32 71.21C70.98 71 74.28 69.21 76.68 66.22C78.93 63.41 79.91 60.01 80.36 56.5ZM76.67 85.62C76.69 85.68 76.7 85.74 76.73 85.81C79.26 91.57 79.01 98.25 76.01 103.75C70.74 105.17 65.51 106.72 60.33 108.4C68.37 99.81 70.47 86.7299 67.05 75.2999C70.28 78.6999 73.49 82.14 76.67 85.62ZM75.22 107.06C75.3 107.17 75.39 107.26 75.52 107.35C79.04 109.74 81.19 113.62 79.98 117.84C77.41 123.5 75.21 129.32 73.41 135.26C71.03 125.24 63.6 117.52 53.87 113.73C60.9 111.28 68.02 109.05 75.22 107.06ZM82.43 119.69C82.5 119.64 82.57 119.58 82.63 119.5C85.83 115.79 90.96 114.54 95.42 116.43C97.68 121.54 99.78 126.72 101.71 131.95C91.72 130.33 81.76 133.76 74.89 141.03C76.82 133.74 79.33 126.6 82.43 119.69ZM98.67 116.41C98.78 116.25 98.87 116.07 98.89 115.83C99.29 110.23 103.36 105.62 108.74 104.29C115.11 105.53 121.4 107.08 127.6 108.94C116.5 112.13 108.05 120.59 104.81 131.74C102.92 126.57 100.87 121.46 98.67 116.41ZM155.17 66.51C148.05 69.9 140.99 73.42 134 77.07C121.4 74.56 111.12 65.68 106.84 53.67C110.1 43.79 113.79 34.0399 117.88 24.4599C122.03 44.16 135.92 60.21 155.17 66.51ZM115.02 23.56C111.42 32 108.13 40.56 105.17 49.23C98.21 54.88 89.1 55.19 81.91 50.14C80.38 43.81 78.86 37.48 77.33 31.15C90.42 35.57 104.97 32.87 115.02 23.56ZM75.17 35.01C76.32 39.79 77.47 44.56 78.63 49.34C78.63 49.35 78.63 49.37 78.62 49.38C78.49 49.6 78.44 49.8599 78.51 50.1099C78.28 58.0299 76.12 70.49 65.33 68.94C65.25 68.93 65.19 68.95 65.12 68.95C60.27 63.91 55.35 58.94 50.36 54.04C61.9 53.16 71.71 45.87 75.17 35.01ZM49.22 57.1099C53.95 61.7799 58.62 66.5 63.22 71.29C63.23 71.42 63.26 71.55 63.32 71.68C69.32 84.74 66.68 101.75 54.79 110.24C48.31 112.47 41.89 114.89 35.56 117.51C46.66 99.43 51.41 78.2199 49.22 57.1099ZM32.49 122.06C38.4 119.52 44.38 117.15 50.42 114.96C62.28 118.51 71.2 128.01 71.88 140.64C70.31 146.66 69.14 152.78 68.38 158.95C64.19 141.06 50.57 126.82 32.49 122.06ZM70.75 165.59C71.27 158.89 72.27 152.25 73.75 145.71C73.92 145.63 74.08 145.51 74.21 145.33C80.68 136.36 91.83 132.12 102.6 134.4C106.34 144.85 109.44 155.52 111.86 166.36C100.16 155.72 82.72 155.47 70.75 165.59ZM114.73 165.59C112.45 155.39 109.59 145.33 106.15 135.46C106.21 135.36 106.26 135.25 106.29 135.11C108.96 122.09 118.71 112.57 131.8 110.26C141 113.26 149.96 116.95 158.62 121.29C136.75 126.86 120 143.91 114.73 165.59Z" fill="white"/>
<path d="M48.3299 26.9202C49.0999 27.4202 50.0799 27.2202 50.6499 26.5102C51.1899 25.8202 51.1799 24.8302 50.5399 24.2002C49.9599 23.6202 48.9699 23.4902 48.2799 23.9602C48.1199 24.0702 48.0099 24.2102 47.9099 24.3602C47.7899 24.4902 47.6799 24.6402 47.6099 24.8102C47.3099 25.5602 47.6699 26.5002 48.3299 26.9202Z" fill="white"/>
<path d="M53.6998 27.7598C55.1498 27.7598 55.1498 25.5098 53.6998 25.5098C52.2498 25.5098 52.2498 27.7598 53.6998 27.7598Z" fill="white"/>
<path d="M161.41 146.52C161.35 146.58 161.29 146.65 161.23 146.71C160.23 147.76 161.82 149.35 162.82 148.3C162.88 148.24 162.94 148.17 163 148.11C164 147.07 162.41 145.47 161.41 146.52Z" fill="white"/>
<path d="M160.09 151.42C158.64 151.42 158.64 153.67 160.09 153.67C161.54 153.67 161.54 151.42 160.09 151.42Z" fill="white"/>
<path d="M140.96 147.49C140.63 147.67 140.46 147.97 140.42 148.3C140.21 148.81 140.27 149.43 140.58 149.91C140.85 150.33 141.33 150.62 141.83 150.63C142.51 150.63 142.92 150.1 143.36 149.66C143.63 149.39 143.78 148.93 143.65 148.57C143.26 147.43 142.04 146.91 140.96 147.49Z" fill="white"/>
<path d="M137.74 168.02C137.68 168.09 137.61 168.15 137.55 168.22C136.55 169.27 138.14 170.86 139.14 169.81C139.2 169.74 139.27 169.68 139.33 169.61C140.33 168.56 138.74 166.97 137.74 168.02Z" fill="white"/>
<path d="M139.53 31.1097C139.5 31.1897 139.49 31.2598 139.47 31.3398C139.45 31.4098 139.43 31.4798 139.43 31.5598C139.42 31.6598 139.42 31.7498 139.42 31.8498C139.42 31.9198 139.42 31.9797 139.43 32.0497C139.44 32.1397 139.47 32.2298 139.49 32.3198C139.51 32.3898 139.53 32.4598 139.56 32.5298C139.6 32.6298 139.66 32.7298 139.72 32.8198C139.74 32.8398 139.74 32.8697 139.76 32.8997C139.77 32.9097 139.78 32.9197 139.79 32.9297C139.83 32.9797 139.85 33.0297 139.89 33.0797C140.8 34.1097 142.56 33.8697 143.22 32.6797C143.97 31.3297 142.77 29.7098 141.34 29.7298C141.19 29.6998 141.03 29.7097 140.88 29.7697C140.82 29.7897 140.77 29.8298 140.72 29.8498C140.3 30.0098 139.96 30.3298 139.73 30.7198C139.72 30.7298 139.72 30.7398 139.71 30.7498C139.63 30.8598 139.57 30.9797 139.53 31.1097Z" fill="white"/>
<path d="M150.09 34.3499C150.17 34.2699 150.24 34.1999 150.32 34.1199C151.35 33.0899 149.75 31.4999 148.73 32.5299C148.65 32.6099 148.58 32.6799 148.5 32.7599C147.47 33.7799 149.06 35.3699 150.09 34.3499Z" fill="white"/>
<path d="M148.15 53.1802C149.6 53.1802 149.6 50.9302 148.15 50.9302C146.7 50.9302 146.7 53.1802 148.15 53.1802Z" fill="white"/>
<path d="M128.05 32.8501C129.5 32.8501 129.5 30.6001 128.05 30.6001C126.6 30.6001 126.6 32.8501 128.05 32.8501Z" fill="white"/>
</svg>
