<svg width="124" height="130" viewBox="0 0 124 130" fill="none" xmlns="http://www.w3.org/2000/svg">
<path d="M123.06 37.4898C117.28 26.4598 113.94 14.5698 113 2.16978C113.46 1.23978 113.05 -0.100218 111.75 0.00978199C75.8399 3.05978 39.9299 6.10978 4.01994 9.15978C3.80994 9.13978 3.59994 9.16978 3.38994 9.24978C3.15994 9.31978 2.95994 9.43978 2.80994 9.57978C2.65994 9.69978 2.52994 9.82978 2.42994 9.98978C1.73994 10.0598 1.09994 10.5398 1.08994 11.4198C0.599944 47.1198 2.05994 82.8198 5.44994 118.36C5.61994 120.12 8.18994 120.27 8.42994 118.76C20.5399 112.08 34.4599 110.08 47.9499 112.97C48.1799 113.11 48.4299 113.16 48.6899 113.13C48.9099 113.18 49.1299 113.22 49.3599 113.27C50.1199 113.45 50.6399 112.9 50.7399 112.3C50.7399 112.3 50.7399 112.3 50.7399 112.29C55.4899 99.8298 66.0899 90.7598 78.9699 87.5398C79.3299 87.4498 79.5599 87.2398 79.6799 86.9798C79.8699 86.8498 80.0199 86.6498 80.0999 86.3598C85.7299 64.8598 101.55 46.9998 122.38 39.1298C122.6 39.0498 122.76 38.9198 122.88 38.7598C123.19 38.4498 123.32 37.9798 123.06 37.4898ZM71.2799 6.44978C68.3199 11.3898 67.4699 17.1698 68.7799 22.7798C61.7599 21.2298 54.7099 19.7698 47.6499 18.4098C47.6499 18.3798 47.6499 18.3498 47.6399 18.3198C46.8399 14.4298 48.3199 10.6398 51.3499 8.14978C57.9899 7.57978 64.6399 7.00978 71.2799 6.44978ZM94.7199 4.44978C90.8399 12.0998 90.4699 20.6498 93.5699 28.6498C86.1599 26.7598 78.7199 24.9798 71.2499 23.2998C69.5399 17.3398 70.5299 11.2998 74.1199 6.18978C80.9799 5.61978 87.8499 5.03978 94.7199 4.44978ZM17.7499 38.4798C15.6299 33.7198 13.4999 28.9498 11.3799 24.1898C11.4699 24.1598 11.5699 24.1298 11.6599 24.0798C12.4899 23.6098 13.3399 23.2498 14.2299 22.9698C14.4599 23.1198 14.7199 23.1798 14.9799 23.1098C18.8599 26.7398 22.7099 30.3998 26.5199 34.0998C23.1899 34.2498 19.9899 35.7698 17.7499 38.4798ZM30.6699 33.9198C26.4099 29.7798 22.1199 25.6798 17.7899 21.6198C18.8299 19.9898 19.8699 18.3698 20.9099 16.7398C27.2299 17.7398 33.5299 18.8198 39.8199 19.9698C34.5699 22.6998 30.8799 27.7198 30.6699 33.9198ZM16.1199 20.0598C14.3799 18.4398 12.6299 16.8298 10.8899 15.2298C13.4199 15.5998 15.9499 15.9798 18.4799 16.3698C17.6899 17.5898 16.9099 18.8198 16.1199 20.0598ZM12.8199 21.0698C12.0299 21.3598 11.2599 21.7098 10.5199 22.1298C10.4999 22.1398 10.4899 22.1498 10.4699 22.1598C9.64994 20.3198 8.82994 18.4798 8.00994 16.6498C9.61994 18.1298 11.2299 19.5898 12.8199 21.0698ZM14.6999 38.9598C11.0099 38.4998 7.36994 38.5598 4.13994 40.3398C4.05994 35.5298 4.01994 30.7198 4.00994 25.9098C5.51994 25.7098 6.99994 25.3898 8.45994 24.9598C10.5399 29.6298 12.6199 34.2898 14.6999 38.9598ZM19.0699 40.4298C21.3099 37.2298 25.2699 35.7298 28.9899 36.4698C33.7399 41.0898 38.4399 45.7698 43.0999 50.4898C36.4299 49.8098 30.2299 53.0898 26.8699 58.9198C24.1699 52.8598 21.4599 46.7998 18.7599 40.7398C18.8699 40.6598 18.9799 40.5598 19.0699 40.4298ZM32.8899 36.0798C32.8899 36.0598 32.8799 36.0298 32.8799 36.0098C32.9199 35.8898 32.9499 35.7498 32.9399 35.5898C32.4599 28.1998 37.3499 22.7398 43.9399 20.7498C50.8199 22.0498 57.6799 23.4298 64.5099 24.9098C54.2999 29.3198 47.5999 38.8798 46.9299 50.1398C42.3099 45.3998 37.6299 40.7098 32.8899 36.0798ZM45.3099 17.9598C37.6399 16.5098 29.9399 15.1598 22.2199 13.9298C22.2699 12.8198 22.3199 11.7098 22.3699 10.5998C30.8799 9.87978 39.3799 9.14978 47.8899 8.42978C45.7799 11.0998 44.8699 14.5198 45.3099 17.9598ZM19.9899 13.5798C16.0299 12.9598 12.0699 12.3798 8.09994 11.8198C12.1099 11.4798 16.1099 11.1398 20.1199 10.7998C20.0699 11.7198 20.0299 12.6498 19.9899 13.5798ZM7.52994 22.8898C6.36994 23.2198 5.19994 23.4698 4.00994 23.6498C4.00994 20.8098 4.03994 17.9598 4.06994 15.1198C5.21994 17.7098 6.37994 20.2998 7.52994 22.8898ZM4.18994 42.9498C7.54994 40.4198 11.7799 40.7198 15.7699 41.3598C18.7599 48.0498 21.7399 54.7398 24.7299 61.4398C17.9599 59.5698 10.9599 60.3698 4.77994 63.6698C4.49994 56.7698 4.30994 49.8598 4.18994 42.9498ZM4.87994 66.1898C11.3699 62.3898 18.7099 61.6498 25.8799 64.1398C25.8999 64.1498 25.9199 64.1498 25.9399 64.1598C28.3399 69.5398 30.7399 74.9298 33.1399 80.3098C23.5799 79.6598 14.3299 81.6898 5.92994 86.2498C5.51994 79.5698 5.15994 72.8798 4.87994 66.1898ZM28.0299 61.5298C31.1099 54.5098 38.4199 51.1098 45.8899 53.3498C49.5799 57.1198 53.2399 60.9198 56.8599 64.7498C47.6299 65.0498 39.7299 69.9798 35.3599 77.9598C32.9199 72.4898 30.4799 67.0098 28.0299 61.5298ZM49.1499 52.3898C48.9999 39.8698 56.7199 29.3598 68.6499 25.8098C75.0499 27.2298 81.4399 28.7298 87.8099 30.3098C72.4199 33.9998 60.9399 46.6998 59.1799 62.8298C55.8699 59.3298 52.5199 55.8498 49.1499 52.3898ZM96.1899 29.3398C96.1799 29.2098 96.1499 29.0898 96.0899 28.9498C92.4899 20.8198 93.0099 11.9198 97.3899 4.21978C101.87 3.83978 106.34 3.45978 110.82 3.07978C111.79 14.4898 114.74 25.4898 119.7 35.7898C111.9 33.5198 104.06 31.3698 96.1899 29.3398ZM8.26994 116.29C7.40994 107.12 6.68994 97.9298 6.08994 88.7498C14.7199 83.8198 24.2199 81.7598 34.1499 82.6298C34.1599 82.6298 34.1699 82.6298 34.1799 82.6298C38.3099 91.8898 42.4399 101.15 46.5699 110.41C33.4699 108.04 20.0799 110.05 8.26994 116.29ZM49.4599 109.57C45.1499 99.9098 40.8399 90.2498 36.5299 80.5898C40.5299 71.7598 49.0399 66.6298 58.8299 67.0098C58.8899 67.0098 58.9299 66.9898 58.9799 66.9798C64.8499 73.2298 70.6399 79.5498 76.3399 85.9498C64.3399 89.5798 54.5499 98.1098 49.4599 109.57ZM78.4699 83.8298C72.8099 77.4798 67.0699 71.1998 61.2399 64.9998C61.2399 64.9898 61.2399 64.9898 61.2399 64.9798C62.1999 47.2498 75.7099 33.3998 93.1999 31.6698C101.55 33.7998 109.86 36.0698 118.14 38.4698C98.9799 46.9598 84.3699 63.6698 78.4699 83.8298Z" fill="white"/>
<path d="M96.8902 64.6298C95.8102 63.9998 94.5002 64.8098 94.1502 65.8798C94.1002 66.0198 94.0802 66.1798 94.0602 66.3298C93.8902 66.4998 93.7602 66.7098 93.7002 66.9598C93.5302 67.7198 93.9302 68.6198 94.7502 68.8098C95.8502 69.0598 96.8802 68.5798 97.4502 67.6198C98.0002 66.6898 97.8902 65.2098 96.8902 64.6298Z" fill="white"/>
<path d="M103.97 66.0796C103.85 66.0796 103.74 66.0796 103.62 66.0796C102.84 66.0796 102.08 66.7696 102.12 67.5796C102.16 68.3896 102.78 69.0796 103.62 69.0796C103.74 69.0796 103.85 69.0796 103.97 69.0796C104.75 69.0796 105.51 68.3896 105.47 67.5796C105.44 66.7696 104.81 66.0796 103.97 66.0796Z" fill="white"/>
<path d="M29.4 119.16C28.83 118.59 27.85 118.59 27.28 119.16C26.71 119.73 26.71 120.71 27.28 121.28C27.39 121.39 27.49 121.49 27.6 121.6C28.17 122.17 29.15 122.17 29.72 121.6C30.29 121.03 30.29 120.05 29.72 119.48C29.61 119.37 29.51 119.27 29.4 119.16Z" fill="white"/>
<path d="M40.01 118.09C39.9 118.09 39.8 118.09 39.69 118.09C38.91 118.09 38.15 118.78 38.19 119.59C38.23 120.4 38.85 121.09 39.69 121.09C39.8 121.09 39.9 121.09 40.01 121.09C40.79 121.09 41.55 120.4 41.51 119.59C41.47 118.78 40.85 118.09 40.01 118.09Z" fill="white"/>
<path d="M37.1702 126.29C35.2402 126.29 35.2402 129.29 37.1702 129.29C39.1002 129.29 39.1102 126.29 37.1702 126.29Z" fill="white"/>
</svg>
