<svg width="107" height="186" viewBox="0 0 107 186" fill="none" xmlns="http://www.w3.org/2000/svg">
<path d="M0.929965 2.95023C3.54997 20.4102 6.17996 37.8702 8.79996 55.3302C8.71996 55.5802 8.73997 55.8802 8.92997 56.1902C15.32 98.7202 21.71 141.25 28.1 183.78C28.42 185.93 31.73 185.27 31.41 183.13C31 180.41 30.59 177.69 30.18 174.97C30.42 174.78 30.6 174.5 30.64 174.11C33.02 150.86 52.44 133.69 75.79 134.28C75.95 134.28 76.09 134.26 76.22 134.22C76.48 134.47 76.83 134.58 77.18 134.57C81.47 137.74 85.76 140.91 90.05 144.08C91.79 145.37 93.67 142.57 91.93 141.28C87.21 137.8 82.5 134.31 77.78 130.83C75.66 122.26 73.64 113.55 73.68 104.69C73.71 99.9102 74.32 95.1102 75.79 90.5502C76.5 88.3502 77.38 86.2102 78.51 84.1902C78.98 83.3402 80.21 80.8002 81.36 79.5002C89.35 78.3002 97.34 77.1002 105.33 75.9002C107.48 75.5802 106.82 72.2702 104.68 72.6002C97.94 73.6102 91.2 74.6303 84.46 75.6403C69.75 66.0403 60.47 49.9902 59.64 32.4202C63.52 27.1702 67.4 21.9202 71.27 16.6702C72.56 14.9302 69.76 13.0502 68.47 14.7902C65.14 19.3002 61.81 23.8102 58.48 28.3102C58.37 28.2902 58.25 28.2702 58.14 28.2602C57.94 28.2302 57.77 28.2402 57.62 28.2802C38.85 27.5902 20.96 21.6502 5.51997 10.9202C5.08997 8.05023 4.65996 5.18023 4.22996 2.31023C3.91996 0.150232 0.609965 0.810232 0.929965 2.95023ZM13.1 61.2502C17.4 65.3602 22.92 67.8602 28.97 68.2702C28.08 69.4702 27.2 70.6702 26.31 71.8602C26.25 71.8702 26.2 71.8703 26.13 71.8903C21.83 72.9803 17.59 71.5002 14.9 67.9802C14.65 67.6502 14.34 67.5202 14.04 67.5102C13.73 65.4302 13.41 63.3402 13.1 61.2502ZM25.66 78.4202C26.09 80.6202 27.33 82.6102 29.16 83.9302C26.32 84.3602 23.48 84.7802 20.64 85.2102C22.31 82.9502 23.98 80.6802 25.66 78.4202ZM29.97 87.2102C29.06 89.8002 28.93 92.5502 29.54 95.1902C26.57 93.0002 23.61 90.8102 20.64 88.6102C23.75 88.1502 26.86 87.6802 29.97 87.2102ZM33.35 98.0002C31.27 94.5702 31.15 90.3302 32.9 86.7702C35.64 86.3602 38.37 85.9502 41.11 85.5402C37.13 89.6102 35.55 95.1702 36.75 100.52C35.62 99.6802 34.49 98.8402 33.35 98.0002ZM33.13 83.3302C33 83.0902 32.78 82.8802 32.43 82.7802C29.35 81.8102 27.35 78.5302 28.13 75.3402C28.16 75.2302 28.17 75.1202 28.17 75.0202C29.23 73.5802 30.29 72.1502 31.35 70.7102C31.55 72.7702 32.07 74.7302 33.39 76.5302C35.02 78.7502 37.29 80.6202 39.58 82.3702C37.43 82.6902 35.28 83.0102 33.13 83.3302ZM24.19 74.7402C21.68 78.1402 19.17 81.5302 16.66 84.9302C15.98 80.4202 15.3 75.9003 14.62 71.3903C17.24 73.7503 20.68 74.9602 24.19 74.7402ZM30.1 99.7802C25.66 101.65 22.25 104.96 20.31 109.22C19.37 102.97 18.43 96.7102 17.49 90.4602C21.69 93.5702 25.9 96.6802 30.1 99.7802ZM21.38 113.94C22.5 108.08 26.7 103.38 32.39 101.59C32.43 101.58 32.46 101.56 32.49 101.55C34.33 102.91 36.17 104.27 38.01 105.63C30.84 108.4 25.27 113.61 21.99 120.43C21.69 118.46 21.4 116.5 21.1 114.53C21.24 114.37 21.34 114.18 21.38 113.94ZM23.26 123.87C26.16 116.13 31.96 110.49 39.71 107.67C39.96 107.58 40.13 107.44 40.25 107.28C43.74 109.86 47.23 112.43 50.72 115.01C38.57 115.74 28.38 123.24 24.13 134.6C23.63 131.26 23.13 127.92 22.62 124.58C22.89 124.45 23.12 124.23 23.26 123.87ZM40.39 103.2C37.39 97.0302 38.97 90.1002 44.68 85.7402C44.98 85.5102 45.12 85.2202 45.14 84.9402C48.5 84.4402 51.85 83.9302 55.21 83.4302C48.18 91.3402 49.34 102 52.03 111.81C48.15 108.93 44.27 106.06 40.39 103.2ZM43.09 81.8402C41.11 80.3002 39.14 78.7402 37.32 77.0202C34.4 74.2702 33.75 71.7402 33.74 67.8402C33.74 67.7302 33.72 67.6202 33.7 67.5302C36.09 64.2902 38.49 61.0502 40.88 57.8102C39.98 67.2102 44.5 75.8602 52.71 80.4002C49.51 80.8702 46.3 81.3602 43.09 81.8402ZM30.78 65.8202C23.51 65.7702 16.86 62.5802 12.43 56.8202C11.76 52.3602 11.09 47.9002 10.42 43.4302C17.86 51.1702 27.94 55.3103 38.67 55.1403C36.04 58.7003 33.41 62.2602 30.78 65.8202ZM29.13 167.95C27.72 158.58 26.31 149.22 24.91 139.85C25.1 139.71 25.25 139.5 25.33 139.19C28.55 125.82 39.9 117 53.68 117.49C53.8 117.49 53.91 117.48 54.02 117.46C60.48 122.23 66.94 127 73.4 131.77C51.83 132.35 33.92 147.24 29.13 167.95ZM75.5 84.5302C73.27 89.0502 72.01 94.0302 71.46 99.0302C70.38 108.95 72.3 118.84 74.61 128.49C68.19 123.75 61.77 119.01 55.36 114.27C52.14 103.88 49.5 91.6502 58.72 83.4802C58.94 83.2902 59.06 83.0602 59.12 82.8402C65.47 81.8902 71.82 80.9302 78.17 79.9802C77.16 81.4202 76.28 82.9502 75.5 84.5302ZM80.78 76.1602C80.77 76.1702 80.77 76.1702 80.76 76.1702C72.95 77.3402 65.14 78.5202 57.33 79.6902C46.94 75.9902 41.26 65.8602 43.85 55.0502C43.95 54.6502 43.86 54.3002 43.67 54.0202C48.23 47.8402 52.8 41.6602 57.36 35.4902C59.03 51.7702 67.5 66.5602 80.78 76.1602ZM56.69 30.7502C51.32 38.0202 45.95 45.2902 40.58 52.5502C28.92 53.4102 17.87 48.6303 10.41 39.6403C10.22 39.4203 10.01 39.2902 9.78997 39.2302C8.53997 30.9202 7.28997 22.6002 6.03997 14.2902C21.17 24.3002 38.55 29.9502 56.69 30.7502Z" fill="white"/>
<path d="M49.8802 163.46C49.7502 163.44 49.6102 163.43 49.4802 163.44C49.4502 163.44 49.4202 163.44 49.4002 163.45C49.2002 163.47 49.0002 163.52 48.8002 163.62C48.5002 163.77 48.2702 164 48.1002 164.27C47.8502 164.54 47.6902 164.87 47.7102 165.24C47.7602 166.17 48.1602 166.93 49.0802 167.26C49.9902 167.59 51.0602 167.17 51.4902 166.3C52.1502 164.97 51.1502 163.62 49.8802 163.46Z" fill="white"/>
<path d="M55.3801 157.5C55.4501 157.4 55.5101 157.3 55.5801 157.2C56.0701 156.47 55.9001 155.34 55.1201 154.86C54.3401 154.38 53.3101 154.53 52.7801 155.32C52.7101 155.42 52.6501 155.52 52.5801 155.62C52.0901 156.35 52.2601 157.48 53.0401 157.96C53.8301 158.44 54.8601 158.29 55.3801 157.5Z" fill="white"/>
<path d="M60.8799 163.63C59.9799 163.03 59.0399 164.42 59.9399 165.03C60.8399 165.63 61.7799 164.23 60.8799 163.63Z" fill="white"/>
<path d="M84.8399 122.68C85.0599 122.69 85.2299 122.61 85.3599 122.51C85.5299 122.5 85.6999 122.45 85.8199 122.32C86.3099 121.79 86.4999 121.09 86.1399 120.42C85.7699 119.73 84.9099 119.49 84.2199 119.81C82.7499 120.46 83.2799 122.63 84.8399 122.68Z" fill="white"/>
<path d="M91.9297 113.93C92.0197 114.88 92.8697 115.63 93.8097 115.69C95.8897 115.82 96.7897 112.75 94.8797 111.82C94.0097 111.4 92.8697 111.6 92.2897 112.41C92.0697 112.72 91.9697 113.09 91.9697 113.45C91.9297 113.6 91.9097 113.76 91.9297 113.93Z" fill="white"/>
<path d="M31.6401 14.7702C31.7201 14.7502 31.8001 14.7402 31.8801 14.7202C32.9401 14.5102 32.6201 12.8602 31.5601 13.0702C31.4801 13.0902 31.4001 13.1002 31.3201 13.1202C30.2501 13.3302 30.5801 14.9802 31.6401 14.7702Z" fill="white"/>
<path d="M38.4499 11.9803C38.7099 12.0303 38.9699 11.9903 39.1799 11.8603C39.3899 11.9003 39.6199 11.8503 39.8299 11.6803C41.1899 10.5903 40.2099 8.28028 38.4499 8.68028C36.7399 9.07028 36.6999 11.6303 38.4499 11.9803Z" fill="white"/>
<path d="M33.3197 7.52023C34.2197 8.12023 35.1597 6.73023 34.2597 6.12023C33.3597 5.52023 32.4197 6.91023 33.3197 7.52023Z" fill="white"/>
<path d="M11.4599 12.6704C12.3599 13.2704 13.2999 11.8804 12.3999 11.2704C11.4999 10.6704 10.5599 12.0704 11.4599 12.6704Z" fill="white"/>
</svg>
