<svg width="204" height="217" viewBox="0 0 204 217" fill="none" xmlns="http://www.w3.org/2000/svg">
<path d="M202.76 141.55C194.05 138.01 185.28 134.61 176.47 131.33C173.14 116.28 173.21 100.1 176.81 85.1101C183.38 83.0901 189.96 81.1101 196.56 79.1701C198.41 78.6301 197.62 75.7301 195.76 76.2801C188.28 78.4701 180.81 80.7301 173.36 83.0301C173.43 82.7101 173.36 82.3601 173.08 82.0501C161.87 69.9401 156.05 54.0701 156.7 37.5901C156.72 37.1601 156.52 36.8701 156.24 36.7001C158.16 34.1101 160.08 31.5301 162 28.9401C163.15 27.3901 160.55 25.8901 159.41 27.4301C157.12 30.5201 154.83 33.6101 152.54 36.6901C133.52 35.5301 115.92 25.5801 105.15 9.84008C105.26 7.17008 105.38 4.50008 105.49 1.84008C105.57 -0.0899218 102.57 -0.0899218 102.49 1.84008C102.32 5.91008 102.14 9.98008 101.97 14.0501C79.66 31.8701 49.33 37.9301 21.78 30.6701C21.7 30.6501 21.62 30.6401 21.54 30.6301C21.47 30.4801 21.41 30.3201 21.33 30.1601C21.09 29.6501 20.66 29.5201 20.25 29.6101C17.18 26.4801 14.12 23.3401 11.08 20.1901C9.74001 18.8001 7.62 20.9201 8.96 22.3101C12.88 26.3601 16.82 30.3901 20.77 34.4001C27.86 51.5001 27.98 70.8301 21.25 88.1101C14.93 86.9201 8.60001 85.7601 2.26001 84.7001C0.370006 84.3801 -0.439997 87.2701 1.46 87.5901C6.06 88.3601 10.65 89.1701 15.23 90.0101C22.09 95.5201 27.56 102.91 28.84 111.81C30.28 121.83 25.83 131.07 18.96 138.11C18.53 138.55 18.57 139.09 18.84 139.49C14.99 141.12 11.14 142.77 7.31 144.43C5.54 145.2 7.07 147.78 8.82 147.02C12.97 145.22 17.13 143.45 21.29 141.68C36.73 146.63 47.59 159.92 48.61 176.33C48.62 176.45 48.66 176.55 48.69 176.65C43.39 183.8 38.08 190.95 32.78 198.09C31.63 199.64 34.23 201.14 35.37 199.6C41.05 191.95 46.72 184.3 52.4 176.65C68.06 172.11 88.2 177.06 94.33 193.39C94.03 200.53 93.72 207.68 93.42 214.82C93.34 216.75 96.34 216.75 96.42 214.82C96.7 208.22 96.98 201.62 97.26 195.03C112.04 175.63 134.66 163.25 158.97 161.25C159.04 161.24 159.08 161.21 159.14 161.2C165.37 166.35 171.62 171.46 177.92 176.52C179.41 177.72 181.55 175.61 180.04 174.4C172.16 168.07 164.34 161.66 156.58 155.2C157.27 145.24 162.77 136.36 172.38 133C182.3 136.65 192.17 140.45 201.97 144.43C203.75 145.17 204.53 142.27 202.76 141.55ZM173.97 130.42C169.53 128.78 165.08 127.18 160.62 125.61C156.4 113.92 156.64 101.41 161.5 89.9401C161.51 89.9201 161.51 89.9101 161.52 89.8901C165.78 88.5401 170.05 87.2001 174.32 85.8801C171.04 100.38 170.97 115.85 173.97 130.42ZM142.21 55.6201C143.33 67.9001 148.47 79.2101 157.08 88.1601C150.41 90.3001 143.75 92.4801 137.11 94.7001C137.21 94.3601 137.16 93.9701 136.83 93.6401C131.28 87.9701 128.72 80.3701 129.85 72.4901C129.86 72.4101 129.84 72.3501 129.84 72.2701C133.97 66.7201 138.09 61.1701 142.21 55.6201ZM127.4 75.5801C127.27 82.9301 129.96 89.8401 135.25 95.2401C135.28 95.2701 135.3 95.2801 135.33 95.3101C130.44 96.9501 125.57 98.6301 120.7 100.31C118.1 97.3001 116.83 93.6501 116.89 89.7601C120.39 85.0301 123.9 80.3001 127.4 75.5801ZM83.04 117.07C87.56 115.37 92.1 113.69 96.63 112.04C94.02 115.55 91.42 119.07 88.81 122.58C87.99 119.98 85.7 118.17 83.04 117.07ZM104.93 105.87C108.22 101.43 111.52 96.9901 114.81 92.5501C115.24 95.6501 116.49 98.5501 118.46 101.09C113.95 102.66 109.44 104.25 104.93 105.87ZM117.36 104.63C116.75 106.81 116.6 109.08 116.93 111.37C113.53 110.36 110.13 109.37 106.72 108.4C110.26 107.13 113.81 105.87 117.36 104.63ZM99.08 81.8701C98.76 89.4001 98.44 96.9201 98.12 104.45C92.25 99.1301 86.41 93.7801 80.61 88.3801C87.57 89.2501 94.26 86.8601 99.08 81.8701ZM94.13 104.88C89.43 103.6 84.72 102.35 80 101.15C81.02 98.5301 81.47 95.8301 81.31 93.1301C85.57 97.0701 89.84 100.99 94.13 104.88ZM96.91 108.76C91.81 110.62 86.72 112.51 81.63 114.42C82.99 111.39 83.2 108.01 82.25 104.84C87.15 106.11 92.04 107.42 96.91 108.76ZM97.64 115.69C97.53 118.38 97.41 121.07 97.3 123.76C95.8 122.92 94.11 122.56 92.42 122.73C94.16 120.38 95.9 118.04 97.64 115.69ZM100.25 124.9C100.44 120.4 100.63 115.9 100.83 111.4C100.9 111.31 100.97 111.22 101.04 111.12C104.56 114.29 108.1 117.45 111.65 120.59C107.36 120.14 103.15 121.75 100.25 124.9ZM105.59 111.19C108.4 111.99 111.2 112.81 114 113.64C113.05 114.48 112.29 115.52 111.78 116.71C109.71 114.88 107.65 113.04 105.59 111.19ZM120.13 112.35C120.05 111.94 119.75 111.6 119.24 111.57C118.75 108.86 119.03 106.2 120.05 103.69C125.54 101.78 131.04 99.8901 136.56 98.0401C134.5 104.23 134.14 110.66 135.39 117.11C130.32 115.48 125.23 113.89 120.13 112.35ZM101.05 106.09C101.36 98.7401 101.68 91.3801 101.99 84.0201C104.67 87.3701 108.58 89.5601 112.9 90.1101C108.95 95.4401 105 100.77 101.05 106.09ZM99.23 78.3201C99.16 78.3801 99.09 78.4501 99.03 78.5201C94.49 84.5701 87.04 87.4101 79.63 85.9601C79.13 85.8601 78.73 86.0701 78.49 86.4001C72.98 81.2601 67.49 76.0901 62.04 70.8801C75.57 74.8801 89.96 71.2801 99.98 60.9901C99.72 66.7601 99.48 72.5401 99.23 78.3201ZM78.7 90.7101C79.44 94.0001 79.19 97.3801 77.83 100.6C71.48 98.9901 65.11 97.4701 58.72 95.9901C64.24 91.1201 62.47 80.9201 60.15 73.2401C66.3 79.1101 72.48 84.9301 78.7 90.7101ZM79.62 104.15C81.24 107.85 80.84 111.97 78.52 115.4C78.47 115.48 78.43 115.56 78.4 115.63C74.37 117.15 70.35 118.69 66.34 120.24C69.76 112.89 66.32 105.16 60.78 99.5401C67.07 101.02 73.35 102.55 79.62 104.15ZM79.62 118.36C82.99 119.11 87.36 121.06 86.92 125.15C84.08 128.98 81.24 132.81 78.4 136.64C76.75 130.87 73.64 124.57 68.18 122.74C71.98 121.26 75.8 119.8 79.62 118.36ZM90.14 125.79C92.46 124.52 95.18 124.65 97.18 126.31C96.96 131.51 96.74 136.71 96.52 141.9C92.74 137.57 86.76 137.26 81.08 138C84.1 133.94 87.12 129.87 90.14 125.79ZM100.09 128.51C100.3 128.43 100.5 128.29 100.64 128.05C103.29 123.81 108.34 121.86 113.16 123.17C113.61 123.29 113.98 123.15 114.22 122.88C116.72 125.08 119.22 127.28 121.73 129.47C113.1 129.8 105.06 133.83 99.57 140.54C99.75 136.53 99.92 132.52 100.09 128.51ZM125.84 129.08C121.73 125.51 117.64 121.91 113.56 118.3C114.02 116.63 115.23 115.24 116.76 114.46C122.73 116.25 128.67 118.11 134.6 120.01C130.6 121.75 127.45 125 125.84 129.08ZM137.74 117.87C137.76 117.74 137.76 117.61 137.72 117.46C136.2 110.53 136.78 103.71 139.28 97.1401C145.76 94.9801 152.26 92.8501 158.77 90.7701C154.61 101.74 154.27 113.49 157.92 124.67C151.23 122.32 144.5 120.06 137.74 117.87ZM126.73 71.4801C117.12 71.5701 110 65.4601 103.82 58.7501C103.59 58.5001 103.33 58.4001 103.08 58.4001C103.37 51.5001 103.67 44.5901 103.96 37.6901C113.4 47.8101 126.7 53.3101 140.6 52.7901C135.98 59.0201 131.35 65.2501 126.73 71.4801ZM102.96 61.1201C109.02 67.5601 116.07 73.1701 125.08 73.7001C121.54 78.4701 118.01 83.2301 114.47 88.0001C109.17 87.8001 104.58 84.8101 102.15 80.1701C102.42 73.8201 102.69 67.4701 102.96 61.1201ZM100.12 57.5701C100.04 57.6201 99.96 57.6901 99.88 57.7801C89.33 69.8901 72.75 73.6501 58.06 67.0401C50.65 59.9101 43.3 52.7201 36.02 45.4701C57.93 51.5101 81.53 48.2701 101.03 36.4701C100.72 43.5101 100.42 50.5401 100.12 57.5701ZM56.72 69.9201C59.32 77.2701 63.49 91.3701 55.84 95.3201C49.59 93.9001 43.32 92.5401 37.03 91.2401C46.55 79.7201 43.49 64.5201 37.91 51.5901C44.14 57.7501 50.41 63.8601 56.72 69.9201ZM56.22 98.4901C63.36 103.97 68.8 113.09 62.97 121.56C55.83 124.34 48.71 127.17 41.62 130.05C47.52 119.32 47.92 106.56 42.75 95.5001C47.25 96.4601 51.74 97.4601 56.22 98.4901ZM63.52 124.54C71.55 123.35 75.05 132.35 76.64 138.78C76.15 138.96 75.96 139.4 76.01 139.84C71.44 145.99 66.88 152.15 62.31 158.3C60.2 147.29 53.42 137.84 43.56 132.47C50.2 129.78 56.85 127.14 63.52 124.54ZM79.19 140.56C85.38 139.44 92.72 138.95 96.15 145.29C96.21 145.41 96.29 145.5 96.37 145.57C96.04 153.33 95.71 161.1 95.38 168.86C87.21 161.28 76.03 157.9 65.06 159.61C69.76 153.26 74.48 146.91 79.19 140.56ZM99.41 144.59C104.89 136.03 114.33 131.27 124.34 131.73C130.13 136.76 135.95 141.75 141.8 146.7C124.98 146.03 108.64 153.8 98.46 167.13C98.77 159.62 99.09 152.1 99.41 144.59ZM127.66 130.65C129.18 126.08 132.85 122.61 137.54 121.36C137.73 121.31 137.89 121.22 138.01 121.11C143.89 123.02 149.75 124.99 155.6 127.02C148.64 130.24 146.54 138.58 145.73 146.13C139.67 141 133.65 135.84 127.66 130.65ZM171.47 83.6201C167.31 84.9101 163.16 86.2201 159.01 87.5401C159.07 87.2301 158.99 86.9001 158.71 86.6001C149.9 77.4601 144.85 65.7201 144.29 53.0301C144.29 52.9701 144.26 52.9301 144.25 52.8701C147.64 48.3001 151.04 43.7201 154.43 39.1401C154.18 55.6501 160.24 71.4701 171.47 83.6201ZM150.94 38.8501C147.89 42.9601 144.84 47.0701 141.79 51.1801C141.65 50.8101 141.32 50.5201 140.79 50.5401C126.68 51.1201 113.34 45.2901 104.16 34.5701C104.14 34.5401 104.11 34.5301 104.09 34.5101C104.39 27.5101 104.69 20.5101 104.98 13.5101C116 28.0501 132.74 37.3001 150.94 38.8501ZM101.85 16.9901C101.6 22.7901 101.36 28.6001 101.11 34.4001C100.81 34.2301 100.44 34.2001 100.05 34.4401C80.29 46.4601 56.29 49.4301 34.2 42.6101C33.82 42.4901 33.51 42.5701 33.27 42.7501C30.22 39.7001 27.18 36.6401 24.15 33.5701C51.01 39.7001 79.89 33.6801 101.85 16.9901ZM24.57 38.2601C27.55 41.2701 30.54 44.2601 33.53 47.2501C33.53 47.4201 33.57 47.5901 33.65 47.7701C40.23 61.0201 45.74 78.3901 34.49 90.7301C30.82 89.9801 27.15 89.2501 23.47 88.5501C29.72 72.4001 30.04 54.5501 24.57 38.2601ZM31.08 111.52C29.9 103.33 25.43 96.3901 19.55 90.8501C26.35 92.1301 33.15 93.4601 39.92 94.8901C45.89 106.17 45.47 119.57 38.79 130.48C38.62 130.76 38.59 131.03 38.65 131.27C33.07 133.55 27.5 135.86 21.95 138.2C28.47 130.88 32.52 121.5 31.08 111.52ZM24.36 140.41C29.83 138.11 35.32 135.83 40.82 133.59C51.52 138.78 58.96 148.86 60.45 160.74V160.75C60.35 160.85 60.28 160.96 60.23 161.09C57.03 165.4 53.83 169.72 50.63 174.03C48.83 158.57 38.74 145.96 24.36 140.41ZM54.53 173.8C57.38 169.96 60.22 166.13 63.07 162.29C74.76 159.63 86.91 163.27 95.24 171.91C95 177.48 94.76 183.06 94.53 188.63C86.89 175.27 69.4 170.54 54.53 173.8ZM97.42 191.26C97.7 184.59 97.99 177.92 98.27 171.25C108.35 155.94 126.4 147.37 144.67 149.15C148.67 152.53 152.7 155.89 156.73 159.23C133.54 161.73 112.22 173.28 97.42 191.26ZM154.49 153.47C152.26 151.61 150.03 149.75 147.8 147.87C148.46 139.94 150.2 130.26 159.09 128.23C162.48 129.42 165.87 130.63 169.25 131.86C160.74 135.87 155.62 144.11 154.49 153.47Z" fill="white"/>
<path d="M60.73 18.6801C62.3 18.3001 62.87 16.4801 62.14 15.1301C61.45 13.8501 59.68 13.6501 58.72 14.6501C58.07 14.8201 57.57 15.3801 57.57 16.0901C57.55 17.7001 59.13 19.0701 60.73 18.6801Z" fill="white"/>
<path d="M67.9399 19.1102C67.9399 18.9902 67.9399 18.8802 67.9399 18.7602C67.9399 17.7902 66.4399 17.7902 66.4399 18.7602C66.4399 18.8802 66.4399 18.9902 66.4399 19.1102C66.4399 20.0702 67.9399 20.0802 67.9399 19.1102Z" fill="white"/>
<path d="M17.3598 50.91C18.2598 49.92 17.9198 48.12 16.7198 47.54C16.6398 47.26 16.4098 47.02 16.0398 47C14.4098 46.94 12.9698 48.72 13.7398 50.28C14.3798 51.6 16.3398 52.04 17.3598 50.91ZM15.4898 49.98C15.6498 49.98 15.8098 49.98 15.9698 49.98C16.0598 49.98 16.1398 49.96 16.2198 49.93C16.2198 49.93 16.2198 49.93 16.2198 49.94C16.0198 50.11 15.7398 50.09 15.4898 49.98Z" fill="white"/>
<path d="M14.75 54.3203C13.78 54.3203 13.78 55.8203 14.75 55.8203C14.83 55.8203 14.91 55.8203 14.99 55.8203C15.96 55.8203 15.96 54.3203 14.99 54.3203C14.91 54.3203 14.83 54.3203 14.75 54.3203Z" fill="white"/>
<path d="M131.93 176.84C131.84 176.72 131.73 176.62 131.56 176.58C131.21 176.48 130.7 176.7 130.64 177.1C130.56 177.67 130.47 178.24 130.39 178.82C130.33 179.23 130.49 179.62 130.91 179.74C132.26 180.13 133.55 178.51 132.78 177.3C132.55 176.95 132.24 176.82 131.93 176.84Z" fill="white"/>
<path d="M138.79 175.55C138.79 175.65 138.79 175.74 138.79 175.84C138.79 176.81 140.29 176.81 140.29 175.84C140.29 175.74 140.29 175.65 140.29 175.55C140.29 174.58 138.79 174.58 138.79 175.55Z" fill="white"/>
<path d="M138.49 184.71C138.3 183.76 136.85 184.16 137.04 185.11C137.08 185.3 137.12 185.48 137.15 185.67C137.34 186.62 138.79 186.22 138.6 185.27C138.57 185.08 138.53 184.89 138.49 184.71Z" fill="white"/>
<path d="M182.33 114.48C182.33 114.58 182.33 114.67 182.33 114.77C182.33 115.74 183.83 115.74 183.83 114.77C183.83 114.67 183.83 114.58 183.83 114.48C183.83 113.52 182.33 113.52 182.33 114.48Z" fill="white"/>
<path d="M177.95 108.06C177.95 108.16 177.95 108.25 177.95 108.35C177.95 109.32 179.45 109.32 179.45 108.35C179.45 108.25 179.45 108.16 179.45 108.06C179.45 107.09 177.95 107.09 177.95 108.06Z" fill="white"/>
<path d="M15.4399 112.69C14.4699 112.69 14.4699 114.19 15.4399 114.19C16.4099 114.19 16.4099 112.69 15.4399 112.69Z" fill="white"/>
<path d="M20.5102 119.78C19.5402 119.78 19.5402 121.28 20.5102 121.28C21.4802 121.28 21.4802 119.78 20.5102 119.78Z" fill="white"/>
</svg>
