<svg width="150" height="134" viewBox="0 0 150 134" fill="none" xmlns="http://www.w3.org/2000/svg">
<path d="M147.85 19.3502C147.64 19.2202 147.38 19.1301 147.06 19.1301C123.07 19.1901 97.3299 7.93015 72.1899 2.76015C72.0799 2.74015 71.9698 2.70015 71.8598 2.68015C71.8298 2.67015 71.7999 2.68015 71.7599 2.67015C51.5699 -1.42985 31.7699 -1.54985 13.5799 11.3502C12.0199 12.4602 13.5099 15.0602 15.0899 13.9402C17.8699 11.9702 20.7599 10.3302 23.7399 8.97015C34.5599 20.7702 22.1399 36.1002 12.6599 44.2102C8.47987 46.9102 4.45987 50.0202 0.629871 53.6502C-0.770129 54.9802 1.34987 57.1002 2.74987 55.7702C4.79987 53.8302 6.91985 52.0402 9.07985 50.3802C16.2999 53.0602 20.2499 62.6002 22.5899 69.2802C25.0999 76.4302 26.1699 83.8801 25.9799 91.4501C25.9699 91.7701 26.0499 92.0202 26.1799 92.2402C25.3899 94.3102 24.6799 96.4502 24.0599 98.6702C23.5399 100.53 26.4399 101.33 26.9499 99.4702C27.3599 98.0102 27.7999 96.5901 28.2899 95.2001C50.0299 93.7201 77.1099 95.8801 87.2799 118.52C87.0499 123.07 87.0599 127.64 87.3699 132.22C87.4999 134.14 90.4999 134.15 90.3699 132.22C87.4499 88.7702 109.94 45.5201 147.27 23.0602C147.59 22.8702 147.78 22.6202 147.89 22.3502C147.98 22.3302 148.07 22.3102 148.15 22.2802C149.84 21.8302 149.35 19.4202 147.85 19.3502ZM117.44 34.0902C119.83 34.7602 121.57 37.1402 121.78 39.5802C121.78 39.6002 121.79 39.6102 121.79 39.6302C119.85 41.6402 117.99 43.7102 116.19 45.8402C114.78 41.6802 111.71 38.6302 107.86 37.1802C111.06 36.1302 114.26 35.1102 117.42 34.0902C117.42 34.0802 117.43 34.0902 117.44 34.0902ZM104.8 61.7602C102.46 52.5302 95.0699 46.0702 85.9199 44.9002C91.1199 42.8602 96.4299 40.9802 101.75 39.1902C107.69 38.6802 112.63 42.6602 113.81 48.4902C113.82 48.5602 113.85 48.6102 113.87 48.6702C110.56 52.8402 107.53 57.2102 104.8 61.7602ZM95.0399 81.8702C90.1099 66.4702 75.4199 56.7602 59.6199 57.7902C65.5999 54.0202 72.0499 50.7702 78.7699 47.8602C79.0199 47.9602 79.3099 48.0102 79.6299 47.9502C91.0399 46.0602 101.21 53.8102 102.44 65.2902C102.46 65.4402 102.49 65.5701 102.54 65.7001C99.6499 70.9001 97.1499 76.3102 95.0399 81.8702ZM114.87 17.4902C116.45 19.9302 116.11 22.9802 113.36 24.5102C113.24 24.5802 113.14 24.6602 113.05 24.7402C108.51 25.0902 103.93 25.3702 99.3399 25.6202C102.48 22.4602 103.53 17.8202 101.65 13.8402C106.04 15.1102 110.44 16.3602 114.87 17.4902ZM115.51 27.6202C116.58 28.3302 117.11 30.2201 116.21 31.2601C116.16 31.3201 116.13 31.3802 116.09 31.4302C111.89 32.8002 107.63 34.1802 103.38 35.6002C104.06 32.8202 103.36 30.2002 101.65 28.3102C106.22 28.0702 110.78 27.7902 115.3 27.4402C115.36 27.5002 115.43 27.5602 115.51 27.6202ZM117.73 24.3402C118.79 22.5702 119.09 20.4302 118.55 18.4002C124.79 19.8802 131.08 21.0502 137.47 21.6602C131.03 22.8902 124.42 23.7202 117.73 24.3402ZM96.5399 28.5802C99.9899 29.3602 101.66 32.7502 100.07 36.0702C100.01 36.2002 99.9699 36.3302 99.9399 36.4602C99.6599 36.5702 99.4699 36.7502 99.3499 36.9702C93.1199 39.1002 86.9099 41.3602 80.8699 43.8602C83.0499 38.7702 81.6999 33.1802 77.8099 29.6402C84.0299 29.2002 90.2999 28.8902 96.5399 28.5802ZM72.9599 30.0102C78.7599 32.4402 80.6599 39.1202 77.1699 44.4802C76.9299 44.8502 76.8799 45.2102 76.9599 45.5302C69.2599 48.9002 61.9099 52.7102 55.1999 57.2202C57.7499 47.8602 53.5099 38.2902 44.8799 34.1502C53.9499 32.0102 63.3799 30.8002 72.9599 30.0102ZM118.92 27.1301C124.2 26.6501 129.42 26.0402 134.55 25.2002C129.72 26.9402 124.71 28.6102 119.6 30.2802C119.68 29.2002 119.44 28.1001 118.92 27.1301ZM97.0399 12.4802C97.1099 12.6102 97.1998 12.7502 97.3298 12.8702C101.43 16.8802 99.6499 22.6602 94.9399 25.1802C94.5999 25.3602 94.3899 25.6101 94.2899 25.8801C87.9899 26.2101 81.6799 26.5402 75.4199 27.0202C79.0199 23.4102 81.5699 18.8502 81.1499 13.5102C80.9799 11.3002 80.2399 9.23015 79.0699 7.49015C79.3399 7.56015 79.6099 7.62015 79.8799 7.69015C85.6199 9.13015 91.3299 10.8002 97.0399 12.4802ZM72.5899 6.02015C77.0999 7.75015 79.0299 12.8001 77.8199 17.5501C76.7699 21.6501 73.8599 24.7002 70.6299 27.2602C70.5599 27.3102 70.5099 27.3702 70.4599 27.4302C60.9099 28.2802 51.4999 29.5602 42.4499 31.7902C45.6599 26.7802 48.4099 21.4002 48.0599 15.2502C47.7999 10.5902 45.6999 6.75015 42.3499 4.03015C52.3099 2.97015 62.6299 3.99015 72.5899 6.02015ZM26.6499 7.75015C30.2899 6.34015 34.0399 5.33015 37.8599 4.66015C49.7199 10.8802 44.0899 24.0402 38.1799 32.8202C38.1599 32.8602 38.1499 32.9002 38.1299 32.9302C32.6199 34.5002 27.2499 36.4702 22.0799 38.9502C29.7199 29.7802 34.9199 17.6702 26.6499 7.75015ZM23.8599 64.3302C21.2699 58.3102 17.8099 51.5202 11.8399 48.3502C12.6599 47.7702 13.4899 47.2102 14.3299 46.6702C14.3399 46.6602 14.3499 46.6602 14.3599 46.6502C22.2499 41.5502 30.7399 38.0102 39.6299 35.4902C50.3499 37.9502 56.0599 48.9402 51.3499 59.1402C51.2999 59.2502 51.2699 59.3502 51.2399 59.4502C50.9499 59.6902 50.7999 60.0202 50.7599 60.3702C41.7199 67.2002 34.1299 75.5302 28.8799 86.0702C28.4799 78.6002 26.8499 71.2602 23.8599 64.3302ZM29.4399 92.1301C34.6299 79.2401 43.2399 69.4902 53.7999 61.7402C71.8099 57.1602 89.5399 68.2802 93.1799 86.6502C93.1999 86.7302 93.2199 86.8101 93.2499 86.8801C90.4699 95.2901 88.5999 104.01 87.7099 112.86C76.0199 93.4502 50.5499 90.8501 29.4399 92.1301ZM124.25 37.1402C123.67 35.4602 122.67 33.9402 121.31 32.8202C125.67 31.4002 129.95 29.9802 134.1 28.5202C130.66 31.2202 127.37 34.1002 124.25 37.1402Z" fill="white"/>
<path d="M48.1797 101.87C47.6397 101.65 46.9897 101.77 46.5397 102.19C46.2597 102.45 45.9797 102.71 45.6997 102.97C44.8897 103.73 45.2797 105.22 46.3597 105.48C47.7097 105.8 49.0697 105.62 50.2897 104.95C50.9697 104.57 51.2697 103.56 50.8297 102.9C50.2397 102 49.1397 101.6 48.1797 101.87Z" fill="white"/>
<path d="M58.5698 100.46C57.8298 100.89 57.6398 101.81 57.8898 102.58C58.1798 103.47 58.9598 104 59.8898 103.84C60.0298 103.82 60.1298 103.76 60.2098 103.7C60.2898 103.68 60.3598 103.66 60.4298 103.62C61.2098 103.04 61.3598 102.06 60.8698 101.22C60.4098 100.43 59.4198 99.9701 58.5698 100.46ZM59.3398 101.75C59.4198 101.73 59.7898 102.24 59.6698 102.33C59.6398 102.35 59.6198 102.38 59.5898 102.41C59.5598 102.41 59.5298 102.4 59.4898 102.41C59.4998 102.41 59.5098 102.41 59.5098 102.41C59.4998 102.41 59.4898 102.41 59.4898 102.4C59.4398 102.32 59.3798 102.28 59.3398 102.2C59.2698 102.02 59.2598 101.76 59.3398 101.75Z" fill="white"/>
<path d="M14.2699 64.8101C13.6199 63.0701 11.0699 62.7501 10.3299 64.6001C9.99985 65.4101 10.1699 66.4001 10.8399 66.9901C11.5499 67.6201 12.6899 67.6801 13.4299 67.0801C13.8999 66.7001 14.1499 66.0901 14.1199 65.4901C14.2899 65.3401 14.3799 65.1101 14.2699 64.8101Z" fill="white"/>
<path d="M12.6497 72.5201C12.2697 72.2201 11.8197 72.1301 11.3997 72.4301C11.0197 72.7001 10.8697 73.2201 11.0997 73.6401C11.5797 74.5001 12.9097 74.0401 12.8897 73.1101C12.8897 72.9901 12.8597 72.8801 12.8197 72.7901C12.7897 72.6901 12.7397 72.5901 12.6497 72.5201Z" fill="white"/>
<path d="M18.2798 72.51C17.8598 71.64 16.5698 72.4 16.9798 73.27C16.9898 73.29 16.9998 73.32 17.0098 73.34C17.4298 74.21 18.7198 73.45 18.3098 72.58C18.3098 72.56 18.2898 72.53 18.2798 72.51Z" fill="white"/>
</svg>
